<?xml version="1.0" standalone="no"?>
<!DOCTYPE svg PUBLIC "-//W3C//DTD SVG 1.1//EN" "http://www.w3.org/Graphics/SVG/1.1/DTD/svg11.dtd" >
<!--
2013-9-30: Created.
-->
<svg>
<metadata>
Created by iconfont
</metadata>
<defs>

<font id="iconfont_console" horiz-adv-x="1024" >
  <font-face
    font-family="iconfont_console"
    font-weight="500"
    font-stretch="normal"
    units-per-em="1024"
    ascent="896"
    descent="-128"
  />
    <missing-glyph />
    
    <glyph glyph-name="x" unicode="x" horiz-adv-x="1001"
d="M281 543q-27 -1 -53 -1h-83q-18 0 -36.5 -6t-32.5 -18.5t-23 -32t-9 -45.5v-76h912v41q0 16 -0.5 30t-0.5 18q0 13 -5 29t-17 29.5t-31.5 22.5t-49.5 9h-133v-97h-438v97zM955 310v-52q0 -23 0.5 -52t0.5 -58t-10.5 -47.5t-26 -30t-33 -16t-31.5 -4.5q-14 -1 -29.5 -0.5
t-29.5 0.5h-32l-45 128h-439l-44 -128h-29h-34q-20 0 -45 1q-25 0 -41 9.5t-25.5 23t-13.5 29.5t-4 30v167h911zM163 247q-12 0 -21 -8.5t-9 -21.5t9 -21.5t21 -8.5q13 0 22 8.5t9 21.5t-9 21.5t-22 8.5zM316 123q-8 -26 -14 -48q-5 -19 -10.5 -37t-7.5 -25t-3 -15t1 -14.5
t9.5 -10.5t21.5 -4h37h67h81h80h64h36q23 0 34 12t2 38q-5 13 -9.5 30.5t-9.5 34.5q-5 19 -11 39h-368zM336 498v228q0 11 2.5 23t10 21.5t20.5 15.5t34 6h188q31 0 51.5 -14.5t20.5 -52.5v-227h-327z" />
    

    
    <glyph glyph-name="jiahao" unicode="&#58906;" d="M745.9988 442.3016 545.138747 442.3016 545.138747 643.154429c0 16.5568-13.4234 29.9797-29.9809 29.9797-16.5585 0-29.9809-13.4229-29.9809-29.9797l0-200.852822L284.314891 442.301608c-16.5575 0-29.9809-13.4229-29.9809-29.9797s13.4234-29.9797 29.9809-29.9797l200.861052 0 0-200.851822c0-16.5568 13.4234-29.9797 29.9809-29.9797 16.5575 0 29.9809 13.4229 29.9809 29.9797L545.137743 382.34226l200.860052 0c16.5575 0 29.9809 13.4229 29.9809 29.9797S762.5563 442.3016 745.9988 442.3016z"  horiz-adv-x="1000" />

    
    <glyph glyph-name="shanchu" unicode="&#58880;" d="M344.4593 104.618c15.4235 0 27.902 12.4795 27.902 27.902L372.3613 439.441408c0 15.4225-12.4795 27.902-27.902 27.902-15.4225 0-27.902-12.4805-27.902-27.902l0-306.922496C316.5573 117.0964 329.0368 104.618 344.4593 104.618zM511.872 104.618c15.4235 0 27.902 12.4795 27.902 27.902L539.774 439.441408c0 15.4225-12.4795 27.902-27.902 27.902s-27.902-12.4805-27.902-27.902l0-306.922496C483.969 117.0964 496.4485 104.618 511.872 104.618zM679.2837 104.618c15.4235 0 27.902 12.4795 27.902 27.902L707.1857 439.441408c0 15.4225-12.4795 27.902-27.902 27.902s-27.902-12.4805-27.902-27.902l0-306.922496C651.3818 117.0964 663.8602 104.618 679.2837 104.618zM818.7935 746.3639 703.234048 746.3639c-12.4795 48.0113-55.8039 83.7059-107.6572 83.7059L428.16512 830.0698c-51.8533 0-95.1777-35.6946-107.6572-83.7059L204.949504 746.3639c-61.5526 0-111.6078-50.0828-111.6078-111.6078l0-27.902976 27.901952 0 0-27.901952 55.803904 0 0-530.138112c0-61.526 50.0552-111.6078 111.6078-111.6078l446.432256 0c61.5547 0 111.6078 50.0818 111.6078 111.6078L846.695416 578.952192l55.803904 0 0 27.901952 27.901952 0 0 27.902976C930.4013 696.2821 880.3482 746.3639 818.7935 746.3639zM428.1651 774.2659l167.411712 0c20.5445 0 38.3652-11.308 48.0389-27.902L380.127232 746.3639C389.801 762.9578 407.6206 774.2659 428.1651 774.2659zM790.8915 48.8141c0-30.7896-25.0399-55.8039-55.8039-55.8039L288.65536-6.9898c-30.763 0-59.6726 25.0143-59.6726 55.8039l3.8687 530.1381 558.040064 0L790.891524 48.81408zM149.1446 634.7561c0 30.7896 25.0419 55.8039 55.8039 55.8039L818.793472 690.56c30.7651 0 55.8039-25.0143 55.8039-55.8039L149.144576 634.7561z"  horiz-adv-x="1024" />

    
    <glyph glyph-name="gouwuche" unicode="&#58947;" d="M956.796928 593.728512c-5.210112 8.62208-15.937536 18.936832-37.443584 18.936832L320.672768 612.665344l-29.052928 62.746624c-1.723392 4.328448-4.094976 8.539136-7.560192 13.19936-2.072576 2.702336-4.31104 5.20704-7.97696 8.506368-2.386944 2.072576-4.907008 3.979264-7.561216 5.605376l-1.458176 0.82944c-2.686976 1.558528-5.472256 2.902016-8.323072 3.96288l-1.907712 0.631808c-2.801664 0.945152-5.654528 1.757184-8.572928 2.238464l-4.096 0.463872c-1.823744 0.264192-3.631104 0.447488-5.505024 0.447488L121.224192 711.297024c-31.491072 0-57.109504-25.603072-57.109504-57.091072 0-31.507456 25.618432-57.142272 57.109504-57.142272l80.820224 0 32.65024-70.573056c7.97696-23.348224 19.18464-43.478016 19.252224-43.478016l80.67072-181.128192c0.663552-1.456128 1.44384-2.799616 2.57024-4.608l15.056896-32.02048c5.787648-18.902016 20.810752-33.19808 39.232512-38.488064l-0.183296-2.453504 391.950336 0 17.959936 0.316416-0.232448 2.253824c18.238464 5.371904 33.08032 19.634176 38.851584 38.372352l97.984512 217.076736C944.508928 495.082496 976.976896 560.299008 956.796928 593.728512zM908.690432 496.83968l-92.978176-206.431232-2.5856 0.663552-4.160512-15.435776c-2.920448-10.898432-12.802048-18.507776-25.071616-18.507776-0.067584 0-0.115712 0.033792-0.18432 0.033792l-18.52416 0.53248 0.083968-0.864256L424.841216 256.830464l-17.544192 0.2304c-11.308032 0-21.241856 7.663616-24.193024 18.576384l-4.228096 15.420416-2.520064-0.648192-93.50656 207.460352c-0.116736 0.19968-10.612736 19.03616-17.626112 39.845888l-42.417152 91.881472L121.224192 629.597184c-13.565952 0-24.576 11.060224-24.576 24.608768 0 13.546496 11.010048 24.557568 24.576 24.557568l118.561792-0.13312 2.983936-0.297984c1.260544-0.233472 2.454528-0.596992 4.477952-1.227776 1.243136-0.463872 2.42176-1.077248 4.211712-2.072576 1.143808-0.71168 2.188288-1.542144 3.780608-2.85184 1.04448-0.96256 2.006016-2.057216 3.183616-3.549184 1.293312-1.772544 2.286592-3.514368 3.332096-6.084608l38.13888-82.397184 619.457536 0c7.661568 0 9.069568-2.336768 9.585664-3.217408C935.936 565.372928 924.274688 526.521344 908.690432 496.83968zM469.779456 191.496192c-44.02688 0-79.878144-35.852288-79.878144-79.89248 0-44.04224 35.851264-79.874048 79.878144-79.874048 44.058624 0 79.891456 35.831808 79.891456 79.874048C549.670912 155.643904 513.83808 191.496192 469.779456 191.496192zM469.779456 60.57984c-28.123136 0-51.007488 22.884352-51.007488 51.023872 0 28.141568 22.884352 51.040256 51.007488 51.040256 28.156928 0 51.05664-22.897664 51.05664-51.040256C520.836096 83.464192 497.936384 60.57984 469.779456 60.57984zM746.74688 191.496192c-44.0576 0-79.890432-35.852288-79.890432-79.89248 0-44.04224 35.831808-79.874048 79.890432-79.874048 44.04224 0 79.878144 35.831808 79.878144 79.874048C826.624 155.643904 790.788096 191.496192 746.74688 191.496192zM746.74688 60.57984c-28.153856 0-51.03616 22.884352-51.03616 51.023872 0 28.141568 22.882304 51.040256 51.03616 51.040256 28.141568 0 51.040256-22.897664 51.040256-51.040256C797.786112 83.464192 774.888448 60.57984 746.74688 60.57984z"  horiz-adv-x="1024" />

    
    <glyph glyph-name="chevron-down" unicode="&#58918;" d="M285.724 508.786 240.472 463.532 512 192 783.528 463.532 738.274 508.79 512 282.508Z"  horiz-adv-x="1024" />

    
    <glyph glyph-name="dian" unicode="&#58885;" d="M354.916352 520.044544l305.64864 0 0-274.930688-305.64864 0 0 274.930688Z"  horiz-adv-x="1024" />

    
    <glyph glyph-name="fanhui1" unicode="&#59029;" d="M629.376 652 330.624 344.032 330.624 344.032 288 300 330.624 256.032 330.688 256.032 629.376-51.936 672-7.968 373.312 300 672 607.968Z"  horiz-adv-x="1024" />

    
    <glyph glyph-name="zhongtushitu" unicode="&#59000;" d="M902.30272-134.648064 669.824-134.648064c-32.032768 0-58.10688 26.07616-58.10688 58.084352L611.71712 155.962112c0 32.058368 26.074112 58.084352 58.10688 58.084352l232.477696 0c32.033792 0 58.107904-26.025984 58.107904-58.084352l0-232.525824C960.410624-108.571904 934.336512-134.648064 902.30272-134.648064zM910.59712 155.962112c0 4.574208-3.72224 8.269824-8.295424 8.269824L669.824 164.231936c-4.57216 0-8.2944-3.695616-8.2944-8.269824l0-232.525824c0-4.524032 3.72224-8.269824 8.2944-8.269824l232.477696 0c4.573184 0 8.295424 3.745792 8.295424 8.269824L910.59712 155.962112zM902.30272 388.39168 669.824 388.39168c-32.032768 0-58.10688 26.074112-58.10688 58.084352L611.71712 679.001856c0 32.058368 26.074112 58.084352 58.10688 58.084352l232.477696 0c32.033792 0 58.107904-26.025984 58.107904-58.084352l0-232.525824C960.410624 414.465792 934.336512 388.39168 902.30272 388.39168zM910.59712 679.001856c0 4.57216-3.72224 8.269824-8.295424 8.269824L669.824 687.27168c-4.57216 0-8.2944-3.697664-8.2944-8.269824l0-232.525824c0-4.524032 3.72224-8.269824 8.2944-8.269824l232.477696 0c4.573184 0 8.295424 3.745792 8.295424 8.269824L910.59712 679.001856zM354.357248-134.648064l-232.47872 0c-32.045056 0-58.10688 26.07616-58.10688 58.084352L63.771648 155.962112c0 32.058368 26.061824 58.084352 58.10688 58.084352l232.47872 0c32.057344 0 58.107904-26.025984 58.107904-58.084352l0-232.525824C412.464128-108.571904 386.414592-134.648064 354.357248-134.648064zM362.650624 155.962112c0 4.574208-3.721216 8.269824-8.2944 8.269824l-232.47872 0c-4.57216 0-8.2944-3.695616-8.2944-8.269824l0-232.525824c0-4.524032 3.721216-8.269824 8.2944-8.269824l232.47872 0c4.57216 0 8.2944 3.745792 8.2944 8.269824L362.650624 155.962112zM354.357248 388.39168l-232.47872 0c-32.045056 0-58.10688 26.074112-58.10688 58.084352L63.771648 679.001856c0 32.058368 26.061824 58.084352 58.10688 58.084352l232.47872 0c32.057344 0 58.107904-26.025984 58.107904-58.084352l0-232.525824C412.464128 414.465792 386.414592 388.39168 354.357248 388.39168zM362.650624 679.001856c0 4.57216-3.721216 8.269824-8.2944 8.269824l-232.47872 0c-4.57216 0-8.2944-3.697664-8.2944-8.269824l0-232.525824c0-4.524032 3.721216-8.269824 8.2944-8.269824l232.47872 0c4.57216 0 8.2944 3.745792 8.2944 8.269824L362.650624 679.001856z"  horiz-adv-x="1024" />

    
    <glyph glyph-name="home" unicode="&#59300;" d="M512 769.418667l-469.333333-469.333333 31.146667-31.146667L170.666667 365.749333l0-438.186667 682.666667 0L853.333333 365.792l96.853333-96.896 31.146667 31.146667L512 769.418667zM426.666667-29.770667l0 298.666667 170.666667 0 0-298.666667L426.666667-29.770667zM810.666667-29.770667l-170.666667 0 0 341.333333L384 311.562667l0-341.333333L213.333333-29.770667 213.333333 408.416l298.666667 298.666667 298.666667-298.666667L810.666667-29.770667z"  horiz-adv-x="1024" />

    
    <glyph glyph-name="sousuo" unicode="&#58908;" d="M1013.412864-16.49152l-198.90176 198.892544c53.272576 73.8304 84.666368 164.492288 84.666368 262.488064 0 248.011776-201.056256 449.081344-449.088512 449.081344-248.018944 0-449.088512-201.069568-449.088512-449.081344 0-248.018944 201.069568-449.088512 449.088512-449.088512 97.999872 0 188.660736 31.39584 262.490112 84.667392L911.475712-118.428672c14.075904-14.06976 36.895744-14.06976 50.971648 0l50.965504 50.965504C1027.488768-53.393408 1027.488768-30.573568 1013.412864-16.49152zM129.318912 444.888064c0 177.159168 143.618048 320.777216 320.777216 320.777216s320.771072-143.618048 320.771072-320.777216c0-177.165312-143.611904-320.78336-320.771072-320.78336S129.318912 267.723776 129.318912 444.888064z"  horiz-adv-x="1024" />

    
    <glyph glyph-name="liebiao" unicode="&#58915;" d="M961.097728 631.983104c0-12.824576-10.396672-23.221248-23.221248-23.221248L87.033856 608.761856c-12.824576 0-23.221248 10.396672-23.221248 23.221248l0 101.696512c0 12.824576 10.396672 23.221248 23.221248 23.221248l850.842624 0c12.823552 0 23.221248-10.396672 23.221248-23.221248L961.097728 631.983104zM961.097728 332.325888c0-12.823552-10.396672-23.221248-23.221248-23.221248L87.033856 309.10464c-12.824576 0-23.221248 10.396672-23.221248 23.221248l0 101.696512c0 12.824576 10.396672 23.221248 23.221248 23.221248l850.842624 0c12.823552 0 23.221248-10.396672 23.221248-23.221248L961.097728 332.325888zM961.097728 32.33792c0-12.823552-10.396672-23.221248-23.221248-23.221248L87.033856 9.116672c-12.824576 0-23.221248 10.396672-23.221248 23.221248l0 101.696512c0 12.8256 10.396672 23.222272 23.221248 23.222272l850.842624 0c12.823552 0 23.221248-10.395648 23.221248-23.222272L961.097728 32.33792z"  horiz-adv-x="1024" />

    
    <glyph glyph-name="shezhi" unicode="&#58887;" d="M441.09312 762.35776c2.418688 13.377536 17.788928 28.60544 33.728512 28.60544 15.939584 0 55.502848-0.14336 72.153088 0 16.651264 0.14336 33.840128-11.696128 36.717568-28.60544 2.87744-16.909312 11.242496-66.318336 13.661184-80.265216 2.418688-13.945856 9.393152-19.212288 9.393152-19.212288s22.059008-9.535488 32.448512-13.663232c10.389504-4.125696 20.066304 2.563072 20.066304 2.563072s58.34752 41.555968 69.592064 49.523712c11.242496 7.969792 32.687104 8.078336 41.412608-0.425984 8.725504-8.506368 41.982976-40.845312 55.074816-54.221824 13.092864-13.377536 12.937216-35.446784 4.697088-46.963712-8.241152-11.515904-40.844288-57.06752-46.963712-65.746944s-7.120896-17.709056-4.269056-24.764416c2.850816-7.05536 10.246144-25.331712 11.527168-28.60544 1.281024-3.273728 8.203264-9.992192 14.943232-11.101184s65.334272-10.750976 83.478528-13.739008c18.14528-2.99008 30.826496-19.136512 30.80704-40.341504-0.016384-16.863232 0.055296-44.614656-0.088064-64.039936-0.142336-19.42528-9.936896-35.228672-30.343168-38.749184-20.40832-3.518464-72.968192-12.555264-81.293312-14.191616-8.326144-1.636352-14.455808-5.75488-17.647616-12.52352-3.18976-6.767616-8.822784-18.643968-11.383808-24.477696-2.562048-5.833728-3.359744-16.845824 1.707008-23.908352 5.067776-7.063552 40.702976-56.640512 48.244736-68.168704 7.54176-11.527168 12.863488-33.065984-4.269056-49.95072-17.132544-16.886784-33.088512-32.661504-47.817728-46.963712-14.729216-14.303232-34.582528-15.460352-50.378752-4.27008s-53.367808 37.783552-61.906944 43.974656c-8.538112 6.191104-14.753792 10.79296-26.897408 5.55008-12.142592-5.240832-18.572288-7.897088-26.044416-11.527168-7.471104-3.629056-11.513856-7.473152-13.2352-17.932288-1.72032-10.458112-10.3168-63.044608-13.80352-81.260544s-16.649216-30.336-44.116992-30.454784c-27.467776-0.119808-38.709248-0.285696-59.771904 0-21.062656 0.284672-35.78368 11.635712-39.420928 32.731136-3.638272 21.097472-11.029504 64.398336-13.519872 76.280832-2.491392 11.88352-5.513216 18.415616-15.93856 22.769664s-15.583232 6.546432-21.347328 8.823808c-5.764096 2.2784-16.647168 4.557824-27.039744-2.84672-10.3936-7.404544-46.109696-32.874496-63.756288-45.25568-17.646592-12.38016-38.699008-9.52832-51.803136 3.41504-13.103104 12.946432-36.431872 35.863552-47.533056 47.53408-11.10016 11.669504-16.222208 32.462848-4.8384 48.387072 11.383808 15.925248 33.586176 46.961664 44.686336 62.616576 11.101184 15.655936 8.967168 18.643968 4.839424 30.74048-4.12672 12.097536-5.479424 13.236224-9.10848 21.916672s-9.027584 13.18912-20.777984 15.084544c-11.749376 1.896448-48.101376 7.686144-72.580096 12.238848-24.477696 4.553728-37.285888 17.078272-37.285888 40.702976 0 23.622656 0 48.1024 0 62.759936 0 19.781632 11.331584 37.310464 29.754368 40.594432 18.42176 3.284992 58.281984 9.791488 75.13088 12.915712 17.646592 3.273728 22.383616 5.697536 27.039744 16.507904 4.655104 10.811392 8.681472 19.781632 11.10016 26.898432 2.418688 7.114752 0.630784 13.637632-8.112128 26.044416-8.742912 12.403712-27.324416 38.85056-40.131584 56.497152-12.809216 17.646592-15.085568 39.84896-0.570368 54.079488 14.517248 14.230528 38.710272 37.856256 49.524736 48.956416 10.816512 11.101184 30.052352 15.850496 47.817728 3.416064 17.768448-12.434432 46.67904-32.73216 61.195264-42.551296 14.516224-9.821184 19.417088-11.393024 29.459456-7.259136 10.042368 4.134912 29.032448 11.9552 29.032448 11.9552s8.660992 3.088384 11.101184 17.931264C429.87008 695.22944 438.674432 748.980224 441.09312 762.35776zM453.047296 677.397504c-3.335168-20.616192-11.527168-33.088512-28.178432-39.7056s-10.146816-4.083712-26.897408-11.10016c-16.749568-7.016448-34.368512-4.91008-49.098752 5.55008-14.729216 10.46016-57.744384 41.560064-64.04096 46.109696-6.295552 4.548608-13.449216 3.629056-18.358272-0.854016-4.91008-4.484096-40.3456-40.346624-46.963712-46.963712-6.617088-6.618112-6.404096-11.314176-0.854016-19.212288 5.551104-7.898112 32.918528-45.89568 44.401664-61.90592 11.483136-16.011264 14.516224-33.728512 7.68512-49.952768-6.831104-16.223232-3.907584-9.619456-11.10016-27.324416-7.192576-17.70496-24.763392-25.8304-43.547648-29.032448-18.786304-3.202048-68.301824-11.583488-73.007104-12.381184-4.706304-0.797696-12.382208-3.700736-12.382208-13.2352 0-9.535488 0-59.34592 0-66.176 0-6.831104 3.985408-12.383232 11.9552-14.09024 7.968768-1.707008 62.712832-10.800128 76.849152-13.2352 14.13632-2.434048 30.455808-8.538112 38.424576-26.897408 7.968768-18.358272 4.269056-9.864192 12.381184-28.60544 8.112128-18.742272 2.77504-36.289536-9.819136-53.482496-12.5952-17.189888-35.628032-50.372608-40.986624-57.950208-5.358592-7.575552-5.977088-14.516224 0-20.494336 5.977088-5.976064 42.836992-42.835968 46.536704-46.53568s11.669504-4.698112 18.358272-0.425984c6.688768 4.27008 53.716992 38.62016 65.321984 46.961664 11.604992 8.343552 28.890112 12.808192 51.232768 3.844096 22.34368-8.96512 16.382976-6.656 27.324416-11.101184 10.942464-4.445184 21.987328-21.134336 24.762368-40.559616 2.77504-19.42528 10.033152-65.32096 12.808192-74.287104 2.77504-8.966144 6.404096-11.9552 14.516224-11.9552s56.782848 0 64.894976 0c8.113152 0 12.382208 3.629056 13.662208 11.101184 1.282048 7.471104 8.455168 49.819648 11.9552 70.445056 3.500032 20.624384 10.247168 38.992896 33.728512 48.244736 23.481344 9.250816 6.324224 2.553856 22.20032 8.96512s31.736832 6.26176 48.698368-6.014976c24.830976-17.973248 57.486336-39.56224 64.442368-44.363776s12.381184-6.191104 18.786304 0c6.404096 6.19008 41.838592 41.839616 47.389696 47.39072 5.551104 5.55008 4.839424 11.953152 1.281024 17.50528-3.5584 5.551104-43.175936 60.371968-50.379776 70.444032-7.202816 10.072064-7.684096 28.819456-2.561024 42.267648s6.611968 17.52064 10.595328 26.957824c5.482496 12.988416 20.501504 25.138176 38.71744 28.055552 18.215936 2.916352 77.303808 13.561856 81.47456 14.291968 4.168704 0.731136 9.035776 5.62176 8.822784 11.384832s0 62.12096 0 68.31104-3.202048 12.168192-11.101184 13.377536c-7.898112 1.20832-67.5072 11.10016-84.818944 13.94688-17.31072 2.845696-28.463104 19.354624-33.586176 31.878144-5.123072 12.522496-2.78016 6.690816-9.10848 21.915648-6.327296 15.224832-5.407744 33.301504 5.407744 48.955392 10.816512 15.655936 44.008448 62.45376 47.53408 67.458048 3.524608 5.004288 3.057664 9.321472-1.139712 13.662208-4.197376 4.339712-41.412608 41.413632-47.532032 47.533056s-12.736512 6.404096-17.647616 2.845696c-4.909056-3.5584-69.399552-48.188416-75.424768-52.37248-6.02624-4.18304-26.186752-6.617088-36.149248-2.277376-9.961472 4.339712-21.3504 8.92928-31.307776 13.092864-9.960448 4.163584-23.624704 20.779008-25.545728 32.733184s-13.922304 80.34816-14.943232 86.242304c-1.020928 5.89312-7.328768 9.249792-11.313152 9.179136-3.986432-0.069632-63.614976 0-69.80608 0-6.19008 0-10.887168-6.902784-11.74016-10.46016C465.001472 751.543296 456.382464 698.011648 453.047296 677.397504zM681.396224 383.997952c0-93.386752-75.70432-169.09312-169.092096-169.09312-93.385728 0-169.090048 75.706368-169.090048 169.09312 0 93.384704 75.70432 169.091072 169.090048 169.091072C605.691904 553.089024 681.396224 477.382656 681.396224 383.997952zM512.304128 579.5584c-108.004352 0-195.560448-87.555072-195.560448-195.560448 0-108.0064 87.556096-195.562496 195.560448-195.562496 108.007424 0 195.562496 87.55712 195.562496 195.562496C707.867648 492.003328 620.311552 579.5584 512.304128 579.5584z"  horiz-adv-x="1024" />

    
    <glyph glyph-name="shijian" unicode="&#59015;" d="M511.700671 684.281153c-211.957911 0-383.778061-171.815157-383.778061-383.76336 0-211.95025 171.821174-383.76336 383.778061-383.76336 211.957911 0 383.780108 171.813111 383.780108 383.76336C895.480779 512.465996 723.658581 684.281153 511.700671 684.281153zM511.700671-48.359013c-192.690312 0-348.890077 156.209738-348.890077 348.875782 0 192.699814 156.199765 348.875782 348.890077 348.875782 192.691336 0 348.8911-156.176992 348.8911-348.875782C860.591771 107.852772 704.392006-48.359013 511.700671-48.359013zM703.591748 300.51677 529.145686 300.51677 529.145686 527.28654c0 9.641591-7.819403 17.443277-17.445016 17.443277-9.624589 0-17.443992-7.801686-17.443992-17.443277l0-244.213048c0-9.625218 7.819403-17.443277 17.443992-17.443277l191.891077 0c9.624589 0 17.445016 7.819083 17.445016 17.443277C721.033694 292.71406 713.216337 300.51677 703.591748 300.51677z"  horiz-adv-x="1024" />

    
    <glyph glyph-name="xiangqing" unicode="&#58976;" d="M278.386508 316.692171l-33.368312 0c-9.20604 0-16.692855-7.471159-16.692855-16.693194 0-9.204639 7.486815-16.692171 16.692855-16.692171l33.368312 0c9.20604 0 16.692855 7.486508 16.692855 16.692171C295.079362 309.222035 287.592548 316.692171 278.386508 316.692171zM278.386508 516.912261l-33.368312 0c-9.20604 0-16.692855-7.453762-16.692855-16.674775 0-9.222035 7.486815-16.692171 16.692855-16.692171l33.368312 0c9.20604 0 16.692855 7.470135 16.692855 16.692171C295.079362 509.458499 287.592548 516.912261 278.386508 516.912261zM278.386508 116.45673l-33.368312 0c-9.20604 0-16.692855-7.453762-16.692855-16.693194 0-9.204639 7.486815-16.674775 16.692855-16.674775l33.368312 0c9.20604 0 16.692855 7.470135 16.692855 16.674775C295.079362 109.001945 287.592548 116.45673 278.386508 116.45673zM778.980781 516.912261 378.508842 516.912261c-9.205016 0-16.692855-7.453762-16.692855-16.674775 0-9.222035 7.486815-16.692171 16.692855-16.692171l400.472963 0c9.205016 0 16.692855 7.470135 16.692855 16.692171C795.673636 509.458499 788.186821 516.912261 778.980781 516.912261zM845.734803 683.764384 178.264174 683.764384c-27.650866 0-50.044793-22.376637-50.044793-50.042743l0-667.426909c0-27.649733 22.393927-50.059116 50.044793-50.059116l667.470629 0c27.650866 0 50.04377 22.409382 50.04377 50.059116L895.778573 633.721641C895.778573 661.387747 873.384646 683.764384 845.734803 683.764384zM862.411284-17.02947c0-18.410302-14.941906-33.366945-33.368312-33.366945L194.957028-50.396415c-18.42743 0-33.368312 14.956643-33.368312 33.366945L161.588716 617.02947c0 18.443048 14.940883 33.366945 33.368312 33.366945l634.085943 0c18.42743 0 33.368312-14.923898 33.368312-33.366945L862.411284-17.02947zM778.980781 316.692171 378.508842 316.692171c-9.205016 0-16.692855-7.471159-16.692855-16.693194 0-9.204639 7.486815-16.692171 16.692855-16.692171l400.472963 0c9.205016 0 16.692855 7.486508 16.692855 16.692171C795.673636 309.222035 788.186821 316.692171 778.980781 316.692171zM778.980781 116.45673 378.508842 116.45673c-9.205016 0-16.692855-7.453762-16.692855-16.693194 0-9.204639 7.486815-16.674775 16.692855-16.674775l400.472963 0c9.205016 0 16.692855 7.470135 16.692855 16.674775C795.673636 109.001945 788.186821 116.45673 778.980781 116.45673z"  horiz-adv-x="1024" />

    
    <glyph glyph-name="canshupeizhi" unicode="&#58913;" d="M162.029779-57.300798l110.501131 0L272.53091 273.674289 162.029779 273.674289 162.029779-57.300798zM567.250054 825.300798l-110.501131 0 0-478.070236 110.501131 0L567.250054 825.300798zM272.531933 825.300798 162.029779 825.300798l0-294.188252 110.501131 0L272.53091 825.300798zM861.985571 825.300798 751.467043 825.300798l0-183.880961 110.518528 0L861.985571 825.300798zM898.826104 604.650399 714.627534 604.650399c-20.343137 0-36.840533-16.461927-36.840533-36.769438l0-110.325711c0-20.306488 16.497395-36.786835 36.840533-36.786835l184.19857 0c20.342114 0 36.839509 16.479323 36.839509 36.786835L935.665613 567.880961C935.665613 588.187449 919.168218 604.650399 898.826104 604.650399zM752.62138 458.694189l-36.839509 0L715.781871 566.725648l36.839509 0L752.62138 458.694189zM824.008099 458.694189l-36.857929 0L787.150169 566.725648l36.857929 0L824.008099 458.694189zM899.981464 458.694189l-36.840533 0L863.140931 566.725648l36.840533 0L899.981464 458.694189zM751.467043-57.300798l110.518528 0 0 441.300798L751.467043 384 751.467043-57.300798zM604.107983 310.462147 419.890993 310.462147c-20.342114 0-36.839509-16.479323-36.839509-36.786835l0-110.325711c0-20.306488 16.497395-36.769438 36.839509-36.769438l184.21699 0c20.342114 0 36.822112 16.46295 36.822112 36.769438L640.930096 273.674289C640.930096 293.9818 624.450097 310.462147 604.107983 310.462147zM457.885863 164.504914l-36.839509 0L421.046353 272.537396l36.839509 0L457.885863 164.504914zM529.273605 164.504914l-36.840533 0L492.433072 272.537396l36.840533 0L529.273605 164.504914zM605.244923 164.504914l-36.822112 0L568.422811 272.537396l36.822112 0L605.244923 164.504914zM456.748923-57.300798l110.501131 0L567.250054 89.811748l-110.501131 0L456.748923-57.300798zM309.389863 494.324688 125.172873 494.324688c-20.342114 0-36.839509-16.461927-36.839509-36.769438l0-110.325711c0-20.307512 16.497395-36.769438 36.839509-36.769438l184.21699 0c20.342114 0 36.822112 16.461927 36.822112 36.769438L346.211975 457.556273C346.211975 477.862761 329.730953 494.324688 309.389863 494.324688zM163.167742 348.385874l-36.856906 0L126.310836 456.40096l36.856906 0L163.167742 348.385874zM236.847784 348.385874l-36.840533 0L200.007251 456.40096l36.840533 0L236.847784 348.385874zM310.526802 348.385874 273.687293 348.385874 273.687293 456.40096l36.839509 0L310.526802 348.385874z"  horiz-adv-x="1024" />

    
    <glyph glyph-name="tianjia" unicode="&#58911;" d="M150.770842 746.721104C228.465227 824.417898 328.655605 874.814125 439.343793 890.713767c135.307104 19.420586 270.138567-15.048305 379.558781-97.013822 109.446706-81.9896 180.424323-201.684855 199.864175-337.017246 40.13082-279.463531-154.614499-539.374019-433.931123-579.532534-117.125592-16.806369-237.226647 7.735481-338.194908 69.036522-17.266355 10.501422-22.75007 32.998619-12.276344 50.244504 10.572467 17.136307 32.961291 22.776561 50.233667 12.279956 86.487113-52.56852 189.419349-73.589426 289.849354-59.158852C813.815026-16.11368 980.734769 206.720926 946.374252 446.286038c-16.652237 115.992483-77.493291 218.570698-171.318515 288.823415-93.803549 70.280413-209.355312 99.784579-325.317692 83.107054-239.626524-34.34125-406.474018-257.201143-372.059314-496.715681 9.019109-62.701471 30.790202-121.296779 64.79429-174.118172 10.907221-17.0183 5.944905-39.719-10.939734-50.549155-16.985788-10.936121-39.635913-6.023175-50.544338 10.939734C41.29644 169.540282 15.855088 237.903682 5.281417 311.106575-14.140373 446.418495 20.302026 581.289695 102.343405 690.740013 117.264069 710.727756 133.447891 729.395745 150.770842 746.721104L150.770842 746.721104zM150.770842 746.721104M553.151942 353.086974l222.387864-0.155336c20.191244-0.032512 36.559301 16.334341 36.591813 36.525585 0.032512 20.198469-16.359628 36.591813-36.529197 36.600242l-222.673249 0.175806-0.714063 220.842936c-0.099945 20.220144-16.464389 36.540035-36.684533 36.438886-20.194856-0.069841-36.506318-16.488472-36.436477-36.685737l0.716471-220.532264-220.810423 0.139682c-20.220144 0-36.559301-16.334341-36.591813-36.53281-0.006021-10.185934 4.129042-19.37242 10.830156-26.009713 6.597556-6.533736 15.691323-10.556813 25.700246-10.5821l221.090991-0.164969 0.708042-224.486704c0.025287-10.110072 4.156737-19.243575 10.832564-25.856786 6.650539-6.589127 15.796084-10.603775 25.851969-10.584508 20.192448 0.073453 36.482235 16.466798 36.436477 36.684533L553.151942 353.086974 553.151942 353.086974zM567.22127 389.465652"  horiz-adv-x="1024" />

    
    <glyph glyph-name="bangzhu1" unicode="&#58970;" d="M521.303-96.485v21.537l-0.032-21.537c-259.877 0-471.3 211.43-471.3 471.308 0 259.868 211.423 471.29 471.3 471.29 259.875 0 471.297-211.421 471.297-471.29-0.001-259.877-211.415-471.308-471.265-471.308zM521.27 803.035c-236.127 0-428.221-192.096-428.221-428.212 0-236.125 192.096-428.23 428.221-428.23h0.032c236.1 0 428.187 192.105 428.187 428.23 0 236.115-192.095 428.212-428.219 428.212zM521.27 275.615c-11.898 0-21.54 9.642-21.54 21.54v91.171c0 11.898 9.642 21.54 21.54 21.54 47.671 0 86.45 38.778 86.45 86.452 0 47.68-38.779 86.477-86.45 86.477-47.674 0-86.46-38.797-86.46-86.477 0-11.896-9.644-21.54-21.54-21.54-11.898 0-21.54 9.642-21.54 21.54 0 71.433 58.115 129.555 129.54 129.555s129.53-58.122 129.53-129.555c0-64.088-46.781-117.448-107.992-127.738v-71.425c0-11.898-9.642-21.54-21.537-21.54zM556.732 178.065c0-19.604-15.903-35.497-35.48-35.497-19.588 0-35.465 15.892-35.465 35.497 0 19.588 15.876 35.473 35.465 35.473 19.578 0 35.48-15.885 35.48-35.473z"  horiz-adv-x="1024" />

    
    <glyph glyph-name="tubiao" unicode="&#58957;" d="M948.912 827.714l35.858 0 0-879.796-944.099 0 0 35.283 907.638 1.833 0.602 842.681zM476.406 791.054c0 20.247 16.26 36.659 36.311 36.659l108.935 0c20.059 0 36.316-16.413 36.316-36.659l0-733.163-181.561 0 0 733.163zM694.282 571.101c0 20.247 16.253 36.662 36.31 36.662l108.935 0c20.059 0 36.316-16.416 36.316-36.662l0-513.213-181.558 0 0 513.213zM258.541 351.156c0 20.247 16.257 36.659 36.31 36.659l108.935 0c20.055 0 36.311-16.413 36.311-36.659l0-293.266-181.555 0 0 293.266zM76.978 167.863l108.935 0c20.055 0 36.311-16.413 36.311-36.662l0-73.312-181.555 0 0 73.312c0 20.249 16.257 36.662 36.307 36.662z"  horiz-adv-x="1024" />

    
    <glyph glyph-name="gongsi" unicode="&#58917;" d="M64.085 833.248c148.353 0 295.041 0 444.432 0 0-298.936 0-596.874 0-896.964-147.338 0-294.692 0-444.432 0C64.085 233.718 64.085 531.735 64.085 833.248zM116.086 610.819c40.923 0 77.098 0 114.211 0 0 37.925 0 73.439 0 113.141-34.723 0-68.329 0.547-101.87-0.68-4.286-0.156-11.607-9.442-11.79-14.697C115.528 676.74 116.086 644.843 116.086 610.819zM344.332 608.76c33.463 0 66.039-0.696 98.518 0.731 4.991 0.221 13.352 10.008 13.661 15.719 1.458 27.106 1.63 54.394-0.077 81.471-0.381 6.135-9.817 16.426-15.511 16.72-31.559 1.644-63.255 0.788-96.591 0.788C344.332 684.704 344.332 648.603 344.332 608.76zM231.501 159.611c0 34.067 1.016 64.907-0.856 95.574-0.381 6.197-11.348 16.268-18.019 16.768-26.119 1.957-52.514 1.579-78.711 0.212-6.074-0.317-16.66-7.744-16.858-12.262-1.447-33.218-0.779-66.528-0.779-100.292C156.424 159.611 191.848 159.611 231.501 159.611zM344.725 272.712c0-39.979 0-75.975 0-111.832 38.179 0 74.144 0 112.439 0 0 33.254 0.872 64.142-0.762 94.894-0.311 5.914-10.204 15.861-16.092 16.174C409.542 273.582 378.63 272.712 344.725 272.712zM229.988 497.737c-34.926 0-68.384 0.433-101.803-0.558-4.097-0.122-11.287-7.772-11.419-12.093-0.956-33.234-0.525-66.506-0.525-98.976 40.896 0 76.884 0 113.748 0C229.988 423.728 229.988 458.883 229.988 497.737zM457.153 497.943c-36.319 0-68.042 0.429-99.729-0.453-4.864-0.135-13.617-6.165-13.722-9.68-1.043-34.184-0.624-68.412-0.624-104.076 34.696 0 64.741-1.022 94.615 0.775 6.792 0.409 18.211 10.257 18.587 16.312C458.184 431.539 457.153 462.435 457.153 497.943zM679.426 158.018c0-74.725 0-147.695 0-222.23-37.064 0-70.629 0-106.797 0 0 165.856 0 331.894 0 500.468 127.945 0 256.314 0 387.121 0 0-166.138 0-332.188 0-500.181-34.707 0-68.965 0-106.57 0 0 73.773 0 146.75 0 221.943C794.879 158.018 739.84 158.018 679.426 158.018zM571.324 500.476c0 17.363 0 32.113 0 49.126 129.613 0 257.979 0 388.59 0 0-16.024 0-31.404 0-49.126C831.004 500.476 702.623 500.476 571.324 500.476z"  horiz-adv-x="1024" />

    
    <glyph glyph-name="gerenshezhi" unicode="&#58882;" d="M635.897269 283.874605c-5.534267 1.799996-40.474442 17.553795-18.641309 83.930551l-0.305981 0c56.906343 58.601676 100.400685 152.955624 100.400685 245.815545 0 142.803403-94.968753 217.634716-205.318428 217.634716-110.417216 0-204.842571-74.830289-204.842571-217.634716 0-93.233428 43.256925-187.960883 100.50302-246.426459 22.307966-58.534138-17.588284-80.264045-25.940852-83.319637C266.173871 242.078687 130.596618 165.89047 130.596618 90.685651c0-20.303418 0-8.012488 0-28.179806 0-102.468766 198.663595-125.760239 382.522413-125.760239 184.132052 0 380.282304 23.291472 380.282304 125.760239 0 20.167319 0 7.876388 0 28.179806C893.402359 168.16528 757.146626 243.743606 635.897269 283.874605z"  horiz-adv-x="1024" />

    
    <glyph glyph-name="tuikuan" unicode="&#58939;" d="M640 637.504l-121.294452-182.496c-1.75071-3.36-6.044903-9.984-12.915613-20-5.153032-8.384-9.480258-15.008-12.915613-20-1.75071 3.328-4.327226 7.488-7.729548 12.512-6.903742 11.648-12.056774 20-15.492129 24.992l-126.447484 184.992L276.116645 637.504l161.957161-231.008L296.761806 406.496l0-47.488 165.16129 0 0-80.512-165.16129 0 0-47.488 165.16129 0 0-93.504 0.462452 0L462.451613 128l-0.033032 9.504 58.863484 0 0 93.504 165.16129 0 0 47.488-165.16129 0 0 80.512 165.16129 0 0 47.488-138.735484 0 167.143226 231.008L640 637.504zM495.483871 896C318.430968 896 161.825032 811.584 65.932387 682.08L65.932387 763.392C65.932387 783.616 51.166968 800 32.966194 800S0 783.616 0 763.392l0-183.008c0-0.928 0.429419-1.728 0.495484-2.624C0.429419 577.088 0 576.48 0 575.776c0-7.456 3.501419-14.048 8.588387-19.488 0.660645-0.8 1.189161-1.632 1.915871-2.4 0.693677-0.608 1.453419-1.056 2.180129-1.632 5.648516-5.024 12.486194-8.48 20.281806-8.48 0.759742 0 1.387355 0.416 2.147097 0.48 0.924903-0.064 1.717677-0.448 2.642581-0.448l188.911484 0c20.843355 0 37.788903 14.304 37.788903 31.936 0 17.632-16.945548 31.936-37.788903 31.936l-131.79871 0C174.839742 741.824 324.112516 832.224 495.483871 832.224c255.537548 0 462.682839-200.672 462.682839-448.224 0-247.552-207.14529-448.224-462.682839-448.224-169.224258 0-316.878452 88.16-397.543226 219.488 0.231226 1.6 0.957935 3.04 0.957935 4.672 0 17.792-14.765419 32.224-32.966194 32.224s-32.966194-14.432-32.966194-32.224c0-4.544 0.990968-8.8 2.708645-12.704l-6.804645-3.488C117.726968-17.92 293.260387-128 495.483871-128c291.906065 0 528.516129 229.216 528.516129 512C1024 666.752 787.389935 896 495.483871 896z"  horiz-adv-x="1024" />

    
    <glyph glyph-name="denglurizhi" unicode="&#58895;" d="M512.674898 665.934161c17.817514 0 32.25798 14.440897 32.25798 32.256658l0 90.102111c0 17.815761-14.440465 32.256658-32.25798 32.256658-17.796024 0-32.237513-14.440897-32.237513-32.256658l0-90.102111C480.437385 680.375058 494.878874 665.934161 512.674898 665.934161zM315.034651 665.934161c17.816491 0 32.25798 14.440897 32.25798 32.256658l0 90.102111c0 17.815761-14.441489 32.256658-32.25798 32.256658-17.796024 0-32.25798-14.440897-32.25798-32.256658l0-90.102111C282.776671 680.375058 297.238627 665.934161 315.034651 665.934161zM824.169788 784.549675l-58.727902 0 0-46.943149c6.096085-9.878998 9.675757-21.456684 9.675757-33.913391 0-35.795251-29.026246-64.799842-64.802497-64.799842-35.777274 0-64.783053 29.004591-64.783053 64.799842 0 12.456706 3.579672 24.034393 9.65529 33.913391l0 46.943149-87.385743 0 0-46.943149c6.096085-9.878998 9.675757-21.456684 9.675757-33.913391 0-35.795251-29.026246-64.799842-64.80352-64.799842-35.776251 0-64.78203 29.004591-64.78203 64.799842 0 12.456706 3.579672 24.034393 9.65529 33.913391l0 46.943149-87.385743 0 0-46.943149c6.096085-9.878998 9.675757-21.456684 9.675757-33.913391 0-35.795251-29.026246-64.799842-64.802497-64.799842-35.776251 0-64.78203 29.004591-64.78203 64.799842 0 12.456706 3.579672 24.034393 9.65529 33.913391l0 46.943149-62.041504 2.618641 0-634.234949 17.326307-24.995277 194.142443-178.854481 416.799459 0L824.169788 784.549675zM784.159946-8.944464 473.339443-8.944464c-58.336983 0-53.031947 93.264127-45.243244 146.536424l209.58272 0 0 92.966345c0 59.809177-46.924605 108.286262-104.813362 108.286262s-104.854296-48.477085-104.854296-108.286262l0-58.042951c-34.016092-6.157233-186.007849-29.490661-188.16916 44.726667l0 381.457852 544.318869 0L784.160969-8.944464zM710.315145 665.934161c17.816491 0 32.256956 14.440897 32.256956 32.256658l0 90.102111c0 17.815761-14.440465 32.256658-32.256956 32.256658s-32.25798-14.440897-32.25798-32.256658l0-90.102111C678.057166 680.375058 692.498654 665.934161 710.315145 665.934161zM532.864533 362.020406c40.870478 0 74.02798 34.220383 74.02798 76.437903 0 42.23901-33.157503 76.479859-74.02798 76.479859-40.890944 0-74.02798-34.240849-74.02798-76.479859C458.836553 396.240789 491.974612 362.020406 532.864533 362.020406z"  horiz-adv-x="1024" />

    
    <glyph glyph-name="iconfontcha" unicode="&#58992;" d="M754.782 599.404 512 356.632 269.218 599.404c-13.081 13.081-34.29 13.081-47.369 0-13.081-13.081-13.081-34.288 0-47.367l242.782-242.771L221.849 66.493c-13.081-13.081-13.081-34.288 0-47.367 13.081-13.081 34.29-13.081 47.369 0L512 261.897l242.782-242.771c13.081-13.081 34.289-13.081 47.37 0 13.081 13.081 13.081 34.288 0 47.367L559.37 309.265l242.782 242.771c13.081 13.081 13.081 34.288 0 47.367C789.07 612.483 767.862 612.483 754.782 599.404z"  horiz-adv-x="1024" />

    
    <glyph glyph-name="33" unicode="&#58995;" d="M553.472 261.088 227.904 261.088 227.904 343.968l242.688 0L470.592 587.424l82.88 0L553.472 261.088zM953.984 300c0-243.776-198.336-441.984-441.984-441.984-243.776 0-441.984 198.272-441.984 441.984 0 243.712 198.272 441.984 441.984 441.984C755.712 741.984 953.984 543.712 953.984 300M868.928 300c0 196.8-160.192 356.928-356.928 356.928C315.2 656.928 155.072 496.8 155.072 300S315.2-56.928 512-56.928C708.736-56.928 868.928 103.2 868.928 300"  horiz-adv-x="1024" />

    
    <glyph glyph-name="search1" unicode="&#58994;" d="M23.966 799.274v0zM47.206 799.274v0zM70.445 799.274v0zM93.685 799.274v0zM116.925 799.274v0zM140.165 799.274v0zM163.404 799.274v0zM186.644 799.274v0zM209.884 799.274v0zM233.123 799.274v0zM256.363 799.274v0zM279.603 799.274v0zM302.843 799.274v0zM326.082 799.274v0zM349.322 799.274v0zM372.562 799.274v0zM395.801 799.274v0zM419.041 799.274v0zM442.281 799.274v0zM465.521 799.274v0zM488.76 799.274v0zM512 799.274v0zM535.24 799.274v0zM558.479 799.274v0zM581.719 799.274v0zM604.959 799.274v0zM628.199 799.274v0zM651.438 799.274v0zM674.678 799.274v0zM697.918 799.274v0zM721.157 799.274v0zM744.397 799.274v0zM767.637 799.274v0zM790.877 799.274v0zM814.116 799.274v0zM837.356 799.274v0zM860.596 799.274v0zM883.835 799.274v0zM907.075 799.274v0zM930.315 799.274v0zM953.555 799.274v0zM976.794 799.274v0zM1000.034 799.274v0zM0.726 776.034v0zM0.726 752.794v0zM0.726 729.555v0zM0.726 706.315v0zM0.726 683.075v0zM0.726 659.835v0zM0.726 636.596v0zM0.726 613.356v0zM0.726 590.116v0zM0.726 566.877v0zM0.726 543.637v0zM0.726 520.397v0zM0.726 497.157v0zM0.726 473.918v0zM0.726 450.678v0zM0.726 427.438v0zM0.726 404.199v0zM0.726 380.959v0zM0.726 357.719v0zM0.726 334.479v0zM0.726 311.24v0zM0.726 288v0zM0.726 264.76v0zM0.726 241.521v0zM0.726 218.281v0zM0.726 195.041v0zM0.726 171.801v0zM0.726 148.562v0zM0.726 125.322v0zM0.726 102.082v0zM0.726 78.843v0zM0.726 55.603v0zM0.726 32.363v0zM0.726 9.123v0zM0.726-14.116v0zM0.726-37.356v0zM0.726-60.596v0zM0.726-83.835v0zM0.726-107.075v0zM0.726-130.315v0zM0.726-153.555v0zM0.726-176.794v0zM0.726-200.034v0zM1023.274-130.315c0-92.959-92.959-92.959-92.959-92.959l-265.955 265.909c-68.929-50.105-153.522-79.991-245.318-79.991-231.049 0-418.315 187.266-418.315 418.315s187.266 418.315 418.315 418.315 418.315-187.266 418.315-418.315c0-91.797-29.933-176.389-80.038-245.365l265.955-265.909zM419.041 706.315c-179.689 0-325.356-145.667-325.356-325.356s145.667-325.356 325.356-325.356 325.356 145.667 325.356 325.356-145.667 325.356-325.356 325.356z"  horiz-adv-x="1024" />

    
    <glyph glyph-name="ordinaryxiangxi" unicode="&#58919;" d="M527.808 711.616 527.808 859.136 992 859.136l0-147.584L527.808 711.552 527.808 711.616zM527.808 486.592 527.808 634.176 992 634.176l0-147.584L527.808 486.592 527.808 486.592zM527.808 133.888 527.808 281.344 992 281.344l0-147.52L527.808 133.824 527.808 133.888zM527.808-91.136l0 147.52L992 56.384l0-147.52L527.808-91.136 527.808-91.136zM402.176 485.312 32 485.312 32 855.488l370.176 0L402.176 485.312zM402.176-90.112 32-90.112 32 280.128l370.176 0L402.176-90.112z"  horiz-adv-x="1024" />

    
    <glyph glyph-name="pinglun" unicode="&#59007;" d="M181.950464-92.356864c-10.888192 0-21.697536 0.336896-32.377856 0.99328l-48.2304 2.963456 42.43968 22.79936c50.363392 27.060224 90.082304 70.546432 112.79872 123.194368C156.571648 122.460928 99.479552 218.503936 99.479552 322.69184c0 187.336704 188.312576 339.760128 419.76832 339.760128S938.998784 510.028544 938.998784 322.69184c0-187.341824-188.294144-339.760128-419.750912-339.760128-18.069504 0-36.352 0.960512-54.388736 2.854912-42.69568-26.135552-90.272768-46.212096-141.495296-59.675648C276.752384-86.148352 229.175296-92.356864 181.950464-92.356864zM519.248896 634.984192c-216.107008 0-391.93088-140.096512-391.93088-312.292352 0-97.857536 56.060928-188.228608 153.796608-247.955456l9.73312-5.958656-4.037632-10.551296c-18.650112-48.950272-50.323456-91.405312-91.144192-122.9312 40.2944 1.074176 80.775168 6.902784 120.51968 17.350656 50.148352 13.182976 96.55808 33.00352 137.920512 58.91584l4.174848 2.598912 4.891648-0.562176c18.571264-2.132992 37.436416-3.204096 56.076288-3.204096 216.09472 0 391.907328 140.091392 391.907328 312.297472C911.156224 494.88768 735.342592 634.984192 519.248896 634.984192z"  horiz-adv-x="1024" />

    
    <glyph glyph-name="youjian" unicode="&#59141;" d="M918.801 733.726h-815.006c-48.149 0-87.323-39.172-87.323-87.323v-523.933c0-48.149 39.172-87.323 87.323-87.323h815.006c48.149 0 87.323 39.172 87.323 87.323v523.933c0 48.149-39.171 87.323-87.323 87.323zM74.687 122.47v512.773l256.848-257.093-256.819-256.819c-0.015 0.379-0.030 0.756-0.030 1.139zM116.749 675.513h789.098l-394.548-394.549-394.549 394.549zM372.822 337.109l138.477-138.477 139.179 139.179 244.447-244.448h-765.849l243.746 243.746zM692.466 378.15h-1.652l257.092 257.093v-512.539l-255.442 255.443z"  horiz-adv-x="1024" />

    
    <glyph glyph-name="ttpodicon" unicode="&#59039;" d="M553.631166 107.522244c0-17.292851 0-33.958416 0-42.929742 25.009603 0 184.685279 0 184.685279 0l0-88.618317c0 0-159.675676 0-184.685279 0 0-22.905686 0-123.69623 0-123.69623l-90.465384 0c0 0 0 100.790544 0 123.69623-25.010627 0-185.401594 0-185.401594 0l0 88.618317c0 0 160.39199 0 185.401594 0 0 9.234315 0 26.308179 0 43.797505-154.35346 23.313985-273.185916 156.485007-273.185916 317.251527C189.979866 602.777885 334.103334 746.883957 511.227404 746.883957s321.247538-144.106072 321.247538-321.242422C832.474942 262.91129 710.738343 128.385411 553.631166 107.522244zM511.227404 658.26564c-128.285758 0-232.629221-104.355743-232.629221-232.624105 0-128.274502 104.344486-232.629221 232.629221-232.629221s232.629221 104.355743 232.629221 232.629221C743.856625 553.909897 639.513162 658.26564 511.227404 658.26564z"  horiz-adv-x="1024" />

    
    <glyph glyph-name="users" unicode="&#59013;" d="M512 831c-246.854 0-447-200.146-447-447 0-246.853 200.147-447 447-447 246.854 0 447 200.147 447 447 0 246.854-200.146 447-447 447zM512 801.2c230.048 0 417.199-187.152 417.199-417.2 0-104.822-38.951-200.671-103.018-274.034-1.603 4.685-3.203 9.385-5.021 13.968-31.080 78.547-94.129 143.471-173.474 178.365-0.218 0.087-0.421 0.159-0.626 0.262 31.647 33.38 51.189 78.367 51.189 128.002 0 102.875-83.377 186.25-186.25 186.25-102.874 0-186.25-83.375-186.25-186.25 0-49.648 19.555-94.652 51.218-128.046-0.394-0.175-0.742-0.291-1.15-0.466-78.851-34.646-141.898-99.57-172.98-178.117-1.818-4.598-3.418-9.283-5.019-13.968-64.065 73.363-103.018 169.212-103.018 274.034 0 230.048 187.152 417.2 417.2 417.2zM616.314 314.303c-9.313-8.366-19.541-15.729-30.657-21.697-21.975-11.77-47.030-18.491-73.657-18.491-26.628 0-51.714 6.722-73.686 18.507-11.117 5.968-21.316 13.315-30.629 21.682-31.909 28.664-52.135 70.091-52.135 116.26 0 86.272 70.178 156.45 156.45 156.45s156.449-70.177 156.449-156.45c0-46.17-20.224-87.597-52.135-116.261zM221.101 85.347c1.062 3.885 2.095 7.813 3.302 11.494 26.963 82.721 92.5 151.082 176.909 184.185 30.965-22.96 69.174-36.714 110.688-36.714 41.5 0 79.693 13.735 110.644 36.686 83.799-32.349 149.858-100.999 176.968-184.156 1.193-3.666 2.226-7.594 3.288-11.494-75.213-73.281-177.84-118.547-290.9-118.547s-215.687 45.266-290.899 118.546z"  horiz-adv-x="1024" />

    
    <glyph glyph-name="search" unicode="&#58897;" d="M334.793 606.973c-112.231-50.209-180.161-168.347-165.394-289.439 20.674-191.975 225.939-308.636 401.67-230.37l72.36 32.488 93.034-93.034c72.36-72.36 95.987-88.604 110.755-73.836s-1.477 38.395-75.313 112.231l-93.034 93.034 31.011 57.592c33.965 63.499 41.348 169.824 14.767 237.753-54.639 144.719-245.137 220.033-389.856 153.58zM557.779 562.671c91.557-41.348 131.429-107.801 131.429-215.602 0-109.278-41.348-174.254-137.336-217.079-91.557-41.348-178.684-26.581-255.474 42.825-126.999 115.185-101.894 311.59 50.209 386.903 76.79 38.395 132.906 38.395 211.172 2.953z"  horiz-adv-x="1024" />

    
    <glyph glyph-name="create" unicode="&#59024;" d="M619.328-64.128h-504.576c-28.032 0-50.88 24-50.88 53.184v579.84l250.944 262.912h370.432c31.36 3.52 54.336-20.544 50.88-49.792l0.32-300.032h-0.384l-0-45.504h-69.888l0 45.504v280.064h-336.256v-210.048h-195.968v-546.24h485.376v-69.888zM960.128 223.616h-160.384v160.384h-127.168v-160.32l-160.576-0v-127.168h160.384v-160.576h127.232v160.384h160.512l0 127.296z"  horiz-adv-x="1024" />

    
    <glyph glyph-name="pingzhengshezhi" unicode="&#58934;" d="M844.215846 221.579817l-27.490098-7.465019c-8.376785 17.417695-19.48068 32.819476-33.084513 45.933145l14.594393 25.454742c0.934279 1.658779 1.180895 3.643993 0.687662 5.472642-0.502443 1.853208-1.725294 3.426029-3.39226 4.383844l-46.917566 26.829042c-1.65264 0.951675-3.619434 1.193175-5.477758 0.698918-1.87879-0.499373-3.413749-1.719154-4.360308-3.38305l-13.452383-23.514553c-18.36016 6.520507-37.465287 9.624195-56.963363 9.222035l-7.326872 26.945699c-0.491187 1.857301-1.719154 3.414773-3.37691 4.376681-1.65264 0.951675-3.619434 1.193175-5.466502 0.705058l-52.103682-14.192234c-1.940189-0.528026-3.431146-1.713015-4.371564-3.38919-0.956791-1.641383-1.192152-3.620457-0.698918-5.477758l6.822382-24.997324c-18.012236-8.617261-33.893948-20.171412-47.305399-34.425044l-23.466458 13.404288c-3.448542 1.979074-7.836479 0.774643-9.842159-2.672876l-26.815739-46.855144c-0.946558-1.664919-1.198292-3.634784-0.700965-5.475711 0.50449-1.853208 1.721201-3.415796 3.390213-4.373611l22.222117-12.729929c-6.476505-18.875906-9.369392-38.287001-8.638751-57.878199l-26.298969-7.175423c-1.863441-0.50756-3.403516-1.713015-4.365424-3.370771-0.934279-1.660826-1.204431-3.624551-0.687662-5.472642l14.208607-52.082192c1.039679-3.842515 4.995781-6.111185 8.833179-5.059226l25.448602 6.92062c8.750291-17.49035 20.385283-32.979112 34.710546-46.181809l-14.149255-24.731264c-1.955538-3.438309-0.780783-7.851828 2.696412-9.831926l46.866401-26.809599c3.453658-1.989307 7.844665-0.756223 9.815553 2.674922l13.83203 24.130583c18.128893-5.976108 37.305651-8.736988 56.105832-8.081049l7.860015-28.705785c1.041726-3.842515 5.013177-6.088672 8.844435-5.053086l52.081169 14.182001c0.322341 0.081864 0.644683 0.192382 0.956791 0.325411 3.255137 1.390673 5.068436 5.001921 4.114714 8.510838l-7.560186 27.942399c16.95209 8.438183 32.041764 19.600407 44.953841 33.255405l26.50977-15.170514c3.476171-1.979074 7.862062-0.734734 9.843182 2.673899l26.859741 46.844911c0.961908 1.656733 1.192152 3.64604 0.693802 5.487991-0.49221 1.857301-1.719154 3.414773-3.377934 4.376681l-25.38618 14.528901c6.16235 17.879206 9.071609 36.421514 8.673543 55.233975l29.396517 8.005324c3.696182 1.060145 6.105045 5.007037 5.075599 8.854669l-14.178931 52.109822C852.012416 220.351849 848.052221 222.632799 844.215846 221.579817zM731.865012 109.740636c-7.547907-13.198603-18.914792-23.330358-32.856315-29.290093-20.196994-8.634658-42.701544-7.351432-61.73811 3.53757-33.150004 18.97619-44.675502 61.384046-25.680892 94.584192 7.54893 13.198603 18.918885 23.318078 32.852222 29.27372 20.196994 8.633634 42.660612 7.345292 61.659315-3.51608C739.278865 185.351708 750.847342 142.908036 731.865012 109.740636zM924.857491 461.354785l-17.605983 22.301935c-0.796132 1.016143-1.982144 1.680269-3.270487 1.825578-1.288343 0.146333-2.557242-0.209778-3.601015-1.029446l-10.429537-8.266267c-7.42204 6.431479-15.732309 11.44568-24.799826 14.963807l1.619894 13.726629c0.306992 2.675946-1.607614 5.110391-4.288676 5.430686l-28.182876 3.318582c-1.284249 0.157589-2.580778-0.220011-3.612271-1.02433-1.016143-0.796132-1.669012-1.985214-1.814322-3.273557l-1.472538-12.614296c-9.942443-0.737804-19.400862-3.360538-28.510334-7.17133l-8.269337 10.456143c-1.676176 2.117221-4.716418 2.470261-6.867408 0.807389l-22.25998-17.596773c-2.117221-1.676176-2.485611-4.750187-0.809435-6.866385l7.77815-9.849322c-6.481621-7.6574-11.470239-16.153912-14.882965-25.340131l-13.325493 1.576915c-2.664689 0.320295-5.111414-1.579985-5.423523-4.28663l-3.357468-28.199249c-0.152473-1.292436 0.216941-2.593058 1.02126-3.605108 0.808412-1.02126 1.989307-1.676176 3.278673-1.821485l12.875239-1.50119c0.910743-9.80225 3.421936-19.198248 7.510044-28.021194l-11.04659-8.755408c-2.106987-1.680269-2.466168-4.750187-0.798179-6.872524l17.560958-22.237467c0.800225-1.023306 1.970888-1.676176 3.2623-1.828648 1.292436-0.154519 2.601244 0.218988 3.613294 1.023306l10.764158 8.502651c7.357572-6.060019 15.731286-10.915607 24.585955-14.246469l-1.719154-14.688537c-0.318248-2.691295 1.599428-5.113461 4.28356-5.435803l28.207435-3.334955c1.292436-0.152473 2.596128 0.208754 3.604084 1.02126 1.01205 0.804319 1.669012 1.985214 1.813299 3.27458l1.664919 14.20963c9.450233 0.862647 18.263969 3.217275 27.139104 7.076162l9.43693-11.94403c1.39579-1.771343 3.776-2.315742 5.755074-1.470491 0.39295 0.167822 0.762363 0.38988 1.100054 0.664126l22.296819 17.556864c1.023306 0.799202 1.682315 1.974981 1.836835 3.266393 0.153496 1.291412-0.216941 2.591011-1.02126 3.603061l-8.990768 11.383258c6.116301 7.231705 10.918677 15.295358 14.33959 24.049742l15.056927-1.75804c2.680039-0.293689 5.107321 1.589195 5.435803 4.28356l3.344165 28.184923c0.156566 1.284249-0.209778 2.576685-1.020236 3.604084-0.796132 1.017166-1.970888 1.675152-3.2623 1.829671l-13.982456 1.63115c-0.697895 9.604752-2.971681 18.842137-6.771217 27.577079l11.406794 9.018398C926.173462 456.166623 926.533666 459.237565 924.857491 461.354785zM869.069907 407.203468c-1.098008-9.386788-5.777587-17.779945-13.196557-23.635303-2.466168-1.945305-5.169743-3.555989-8.02886-4.77884-14.625092-6.250354-31.733749-1.889023-41.602513 10.615779-12.045337 15.269775-9.419534 37.509289 5.876847 49.601698 2.456958 1.942235 5.15951 3.552919 8.019651 4.77577 14.59337 6.238075 31.66928 1.868557 41.517579-10.633175C867.515504 425.769312 870.148471 416.54523 869.069907 407.203468zM225.004055 258.210086c0-5.727445 4.644787-10.354835 10.370185-10.354835l244.002246 0c4.41352 7.167237 9.188266 14.086833 14.294564 20.74037L235.373217 268.59562C229.647819 268.59562 225.004055 263.966183 225.004055 258.210086zM550.702975 354.421334 235.373217 354.421334c-5.725398 0-10.370185-4.66116-10.370185-10.385535s4.644787-10.354835 10.370185-10.354835L550.702975 333.680964c5.740748 0 10.385535 4.629437 10.385535 10.354835S556.443723 354.421334 550.702975 354.421334zM550.702975 440.216349 235.373217 440.216349c-5.725398 0-10.370185-4.660136-10.370185-10.384511s4.644787-10.370185 10.370185-10.370185L550.702975 419.461653c5.740748 0 10.385535 4.644787 10.385535 10.370185S556.443723 440.216349 550.702975 440.216349zM235.373217 503.29192l144.241149 0c5.741771 0 10.370185 4.629437 10.370185 10.354835 0 5.725398-4.627391 10.385535-10.370185 10.385535L235.373217 524.03229c-5.725398 0-10.370185-4.66116-10.370185-10.385535C225.004055 507.921357 229.647819 503.29192 235.373217 503.29192zM694.441681 641.076006 582.619896 751.265618c-4.856611 4.812609-11.390421 7.461949-18.197454 7.461949L121.816928 758.727567c-14.328333 0-25.932626-11.588943-25.932626-25.918299l0-630.871341c0-7.004531 2.846838-13.766538 7.933693-18.638499l78.393441-75.592652c10.035564-9.685593 25.948999-9.685593 35.998889 0l79.963193 77.115332 82.978876-80.010265c10.04989-9.685593 25.948999-9.685593 35.998889 0l38.355563 36.984333c-6.392594 19.250436-10.462283 39.556924-11.887748 60.592007l-44.465724-42.890856-82.994226 80.023568c-5.025457 4.841262-11.497868 7.248078-17.98563 7.248078-6.502088 0-12.973476-2.406816-18.014282-7.248078l-79.947843-77.130681-52.477188 50.572816L147.734204 706.891991l401.124773 0 0-84.546581c0-8.589632 6.959505-15.563464 15.562441-15.563464l85.887113 0 0-244.926292c12.486382 1.956561 25.281803 2.981914 38.316677 2.981914 4.542456 0 9.054213-0.13303 13.536294-0.375553L702.161503 622.619656C702.162526 629.563812 699.390389 636.201999 694.441681 641.076006z"  horiz-adv-x="1024" />

    
    <glyph glyph-name="iconfontbiaoji2" unicode="&#58979;" d="M851.517 269.387 851.517 631.966c0 30.062-15.339 36.197-15.339 36.197-17.178 12.884-39.263 0.613-39.263 0.613-46.361-30.425-123.21-27.564-123.21-27.564-78.076-4.905-129.553 33.698-129.553 33.698-73.621 44.173-164.113 44.786-164.113 44.786-57.976 0-133.391-25.301-133.391-25.301l0.005-0.268c-5.597 14.866-19.873 25.569-36.633 25.569-21.584 0-39.242-17.659-39.242-39.242l0-760.864c0-21.584 17.659-39.242 39.242-39.242 21.582 0 39.242 17.659 39.242 39.242L249.262 240.655c50.929 34.399 128.018 31.8 128.018 31.8 78.957 4.95 131.901-33.743 131.901-33.743 93.866-47.852 164.42-42.944 164.42-42.944 90.184 0 160.124 38.65 160.124 38.65C853.356 244.233 851.517 269.387 851.517 269.387zM771.148 302.593c-12.424-30.369-96.167-25.077-96.167-25.077-86.044-3.221-131.443 32.975-131.443 32.975-65.03 42.332-163.332 42.128-163.332 42.128-60.871 0-123.213-22.211-130.943-25.053L249.263 606.041c62.336 36.9 128.018 32.675 128.018 32.675 66.258 4.294 130.062-33.743 130.062-33.743 73.619-47.239 165.646-42.945 165.646-42.945 75.46-1.226 98.773 17.791 98.773 17.791L771.148 302.593z"  horiz-adv-x="1024" />

    
    <glyph glyph-name="iconfontdown2" unicode="&#58997;" d="M955.347 287.973c0 245.044-198.647 443.691-443.691 443.691S67.965 533.017 67.965 287.973s198.647-443.691 443.691-443.691S955.347 42.929 955.347 287.973zM150.878 287.246c0 199.253 161.526 360.778 360.778 360.778s360.775-161.527 360.775-360.778S710.906-73.531 511.654-73.531 150.878 87.993 150.878 287.246zM512.5 149.774c-0.281-0.006-0.564-0.013-0.846-0.013-0.282 0-0.565 0.007-0.847 0.013-0.454 0.009-0.906 0.021-1.359 0.045-0.11 0.005-0.222 0.015-0.332 0.021-10.565 0.612-20.915 5.123-28.621 13.462l-150.448 162.81c-15.794 17.093-14.733 44.002 2.36 59.796s44.001 14.733 59.796-2.36l119.451-129.267 119.452 129.267c15.796 17.093 42.703 18.154 59.796 2.36 17.093-15.796 18.154-42.703 2.36-59.796L542.815 163.301c-7.706-8.338-18.057-12.85-28.622-13.462-0.11-0.006-0.222-0.015-0.332-0.021C513.408 149.795 512.955 149.783 512.5 149.774z"  horiz-adv-x="1024" />

    
    <glyph glyph-name="naozhong" unicode="&#59017;" d="M513.450667 625.853867c-207.394133 0-375.466667-168.106667-375.466667-375.466667 0-94.1056 34.7136-180.0704 91.938133-245.9648l-87.825067-107.6736 26.436267-21.572267 85.111467 104.2944c67.447467-64.699733 158.941867-104.533333 259.822933-104.533333 101.102933 0 192.802133 40.0384 260.317867 105.028267l85.060267-104.925867 26.538667 21.504-87.893333 108.4416c56.9344 65.826133 91.4432 151.569067 91.4432 245.4016C888.917333 457.7472 720.776533 625.853867 513.450667 625.853867zM513.450667-90.912c-188.2112 0-341.333333 153.105067-341.333333 341.2992 0 188.228267 153.122133 341.333333 341.333333 341.333333s341.333333-153.105067 341.333333-341.333333C854.784 62.176 701.661867-90.912 513.450667-90.912zM359.099733 728.288 257.706667 728.288c-94.2592 0-170.666667-76.407467-170.666667-170.666667l0-102.7072 48.5376 0L359.099733 679.716267 359.099733 728.288zM324.9664 693.7792 121.361067 489.047467 121.173333 489.047467l0 68.573867c0 75.264 61.252267 136.533333 136.533333 136.533333l67.259733 0L324.9664 693.7792zM769.706667 728.288l-101.461333 0 0-48.571733 223.573333-224.802133L940.373333 454.914133l0 102.7072C940.373333 651.880533 863.931733 728.288 769.706667 728.288zM906.24 489.047467l-0.238933 0L702.3616 693.7792 702.3616 694.154667 769.706667 694.154667c75.281067 0 136.533333-61.269333 136.533333-136.533333L906.24 489.047467zM496.64 250.421333 308.462933 250.421333 308.462933 216.288 530.773333 216.288 530.773333 523.488 496.64 523.488Z"  horiz-adv-x="1024" />

    
    <glyph glyph-name="refreshing" unicode="&#59059;" d="M960.907 152.876c-0.030 0-0.063 0-0.093 0l-81.249-0.289c17.072 27.404 31.025 56.58 41.653 87.153 16.011 46.057 24.13 94.351 24.13 143.542 0 58.982-11.557 116.214-34.351 170.105-22.011 52.039-53.517 98.771-93.641 138.895-40.125 40.125-86.856 71.63-138.895 93.641-53.89 22.794-111.123 34.351-170.104 34.351-49.96 0-98.968-8.369-145.663-24.872-13.321-4.708-20.303-19.324-15.595-32.646 4.709-13.322 19.326-20.301 32.646-15.595 41.204 14.563 84.475 21.948 128.612 21.948 103.058 0 199.948-40.133 272.821-113.007 72.874-72.874 113.007-169.763 113.007-272.822 0-43.458-7.164-86.1-21.293-126.742-9.22-26.524-21.29-51.854-36.016-75.689l-25.499 73.663c-4.622 13.351-19.189 20.425-32.544 15.807-13.352-4.622-20.428-19.192-15.807-32.544l41.141-118.853c1.377-3.98 3.64-7.401 6.489-10.122 4.636-4.67 11.058-7.562 18.153-7.562 0.030 0 0.063 0 0.093 0l132.097 0.47c14.129 0.050 25.542 11.545 25.492 25.674-0.049 14.099-11.493 25.493-25.581 25.493zM675.533 35.45c-52.352-25.212-108.6-37.995-167.179-37.995-103.058 0-199.949 40.133-272.823 113.007-72.873 72.872-113.006 169.762-113.006 272.821 0 83.809 27.118 164.703 76.924 231.18l33.395-93.505c3.736-10.463 13.585-16.986 24.093-16.986 2.855 0 5.76 0.482 8.603 1.497 13.306 4.752 20.24 19.391 15.488 32.697l-45.712 127.995c-4.124 11.547-15.692 18.29-27.378 16.766-1.882 0.441-3.84 0.682-5.856 0.682-0.030 0-0.060 0-0.089 0l-137.135-0.469c-14.129-0.048-25.543-11.541-25.496-25.67 0.048-14.099 11.492-25.496 25.581-25.496 0.030 0 0.060 0 0.089 0l84.191 0.288c-50.497-72.759-77.863-159.398-77.863-248.98 0-58.982 11.557-116.215 34.351-170.105 22.011-52.040 53.516-98.771 93.641-138.895 40.124-40.125 86.855-71.629 138.895-93.641 53.891-22.794 111.123-34.351 170.105-34.351 66.328 0 130.044 14.488 189.377 43.062 12.73 6.131 18.080 21.42 11.95 34.149s-21.417 18.078-34.147 11.95z"  horiz-adv-x="1024" />

    
    <glyph glyph-name="user" unicode="&#59037;" d="M16.483902 811.500488 16.483902-211.500488 16.483902 811.500488ZM32.468293 811.500488 32.468293-211.500488 32.468293 811.500488ZM48.452683 811.500488 48.452683-211.500488 48.452683 811.500488ZM64.437073 811.500488 64.437073-211.500488 64.437073 811.500488ZM80.421463 811.500488 80.421463-211.500488 80.421463 811.500488ZM96.405854 811.500488 96.405854-211.500488 96.405854 811.500488ZM112.390244 811.500488 112.390244-211.500488 112.390244 811.500488ZM128.374634 811.500488 128.374634-211.500488 128.374634 811.500488ZM144.359024 811.500488 144.359024-211.500488 144.359024 811.500488ZM160.343415 811.500488 160.343415-211.500488 160.343415 811.500488ZM176.327805 811.500488 176.327805-211.500488 176.327805 811.500488ZM192.312195 811.500488 192.312195-211.500488 192.312195 811.500488ZM208.296585 811.500488 208.296585-211.500488 208.296585 811.500488ZM224.280976 811.500488 224.280976-211.500488 224.280976 811.500488ZM240.265366 811.500488 240.265366-211.500488 240.265366 811.500488ZM256.249756 811.500488 256.249756-211.500488 256.249756 811.500488ZM272.234146 811.500488 272.234146-211.500488 272.234146 811.500488ZM288.218537 811.500488 288.218537-211.500488 288.218537 811.500488ZM304.202927 811.500488 304.202927-211.500488 304.202927 811.500488ZM320.187317 811.500488 320.187317-211.500488 320.187317 811.500488ZM336.171707 811.500488 336.171707-211.500488 336.171707 811.500488ZM352.156098 811.500488 352.156098-211.500488 352.156098 811.500488ZM368.140488 811.500488 368.140488-211.500488 368.140488 811.500488ZM384.124878 811.500488 384.124878-211.500488 384.124878 811.500488ZM400.109268 811.500488 400.109268-211.500488 400.109268 811.500488ZM416.093659 811.500488 416.093659-211.500488 416.093659 811.500488ZM432.078049 811.500488 432.078049-211.500488 432.078049 811.500488ZM448.062439 811.500488 448.062439-211.500488 448.062439 811.500488ZM464.046829 811.500488 464.046829-211.500488 464.046829 811.500488ZM480.03122 811.500488 480.03122-211.500488 480.03122 811.500488ZM496.01561 811.500488 496.01561-211.500488 496.01561 811.500488ZM512 811.500488 512-211.500488 512 811.500488ZM527.98439 811.500488 527.98439-211.500488 527.98439 811.500488ZM543.96878 811.500488 543.96878-211.500488 543.96878 811.500488ZM559.953171 811.500488 559.953171-211.500488 559.953171 811.500488ZM575.937561 811.500488 575.937561-211.500488 575.937561 811.500488ZM591.921951 811.500488 591.921951-211.500488 591.921951 811.500488ZM607.906341 811.500488 607.906341-211.500488 607.906341 811.500488ZM623.890732 811.500488 623.890732-211.500488 623.890732 811.500488ZM639.875122 811.500488 639.875122-211.500488 639.875122 811.500488ZM655.859512 811.500488 655.859512-211.500488 655.859512 811.500488ZM671.843902 811.500488 671.843902-211.500488 671.843902 811.500488ZM687.828293 811.500488 687.828293-211.500488 687.828293 811.500488ZM703.812683 811.500488 703.812683-211.500488 703.812683 811.500488ZM719.797073 811.500488 719.797073-211.500488 719.797073 811.500488ZM735.781463 811.500488 735.781463-211.500488 735.781463 811.500488ZM751.765854 811.500488 751.765854-211.500488 751.765854 811.500488ZM767.750244 811.500488 767.750244-211.500488 767.750244 811.500488ZM783.734634 811.500488 783.734634-211.500488 783.734634 811.500488ZM799.719024 811.500488 799.719024-211.500488 799.719024 811.500488ZM815.703415 811.500488 815.703415-211.500488 815.703415 811.500488ZM831.687805 811.500488 831.687805-211.500488 831.687805 811.500488ZM847.672195 811.500488 847.672195-211.500488 847.672195 811.500488ZM863.656585 811.500488 863.656585-211.500488 863.656585 811.500488ZM879.640976 811.500488 879.640976-211.500488 879.640976 811.500488ZM895.625366 811.500488 895.625366-211.500488 895.625366 811.500488ZM911.609756 811.500488 911.609756-211.500488 911.609756 811.500488ZM927.594146 811.500488 927.594146-211.500488 927.594146 811.500488ZM943.578537 811.500488 943.578537-211.500488 943.578537 811.500488ZM959.562927 811.500488 959.562927-211.500488 959.562927 811.500488ZM975.547317 811.500488 975.547317-211.500488 975.547317 811.500488ZM991.531707 811.500488 991.531707-211.500488 991.531707 811.500488ZM1007.516098 811.500488 1007.516098-211.500488 1007.516098 811.500488ZM0.499512 795.516098 1023.500488 795.516098 0.499512 795.516098ZM0.499512 779.531707 1023.500488 779.531707 0.499512 779.531707ZM0.499512 763.547317 1023.500488 763.547317 0.499512 763.547317ZM0.499512 747.562927 1023.500488 747.562927 0.499512 747.562927ZM0.499512 731.578537 1023.500488 731.578537 0.499512 731.578537ZM0.499512 715.594146 1023.500488 715.594146 0.499512 715.594146ZM0.499512 699.609756 1023.500488 699.609756 0.499512 699.609756ZM0.499512 683.625366 1023.500488 683.625366 0.499512 683.625366ZM0.499512 667.640976 1023.500488 667.640976 0.499512 667.640976ZM0.499512 651.656585 1023.500488 651.656585 0.499512 651.656585ZM0.499512 635.672195 1023.500488 635.672195 0.499512 635.672195ZM0.499512 619.687805 1023.500488 619.687805 0.499512 619.687805ZM0.499512 603.703415 1023.500488 603.703415 0.499512 603.703415ZM0.499512 587.719024 1023.500488 587.719024 0.499512 587.719024ZM0.499512 571.734634 1023.500488 571.734634 0.499512 571.734634ZM0.499512 555.750244 1023.500488 555.750244 0.499512 555.750244ZM0.499512 539.765854 1023.500488 539.765854 0.499512 539.765854ZM0.499512 523.781463 1023.500488 523.781463 0.499512 523.781463ZM0.499512 507.797073 1023.500488 507.797073 0.499512 507.797073ZM0.499512 491.812683 1023.500488 491.812683 0.499512 491.812683ZM0.499512 475.828293 1023.500488 475.828293 0.499512 475.828293ZM0.499512 459.843902 1023.500488 459.843902 0.499512 459.843902ZM0.499512 443.859512 1023.500488 443.859512 0.499512 443.859512ZM0.499512 427.875122 1023.500488 427.875122 0.499512 427.875122ZM0.499512 411.890732 1023.500488 411.890732 0.499512 411.890732ZM0.499512 395.906341 1023.500488 395.906341 0.499512 395.906341ZM0.499512 379.921951 1023.500488 379.921951 0.499512 379.921951ZM0.499512 363.937561 1023.500488 363.937561 0.499512 363.937561ZM0.499512 347.953171 1023.500488 347.953171 0.499512 347.953171ZM0.499512 331.96878 1023.500488 331.96878 0.499512 331.96878ZM0.499512 315.98439 1023.500488 315.98439 0.499512 315.98439ZM0.499512 300 1023.500488 300 0.499512 300ZM0.499512 284.01561 1023.500488 284.01561 0.499512 284.01561ZM0.499512 268.03122 1023.500488 268.03122 0.499512 268.03122ZM0.499512 252.046829 1023.500488 252.046829 0.499512 252.046829ZM0.499512 236.062439 1023.500488 236.062439 0.499512 236.062439ZM0.499512 220.078049 1023.500488 220.078049 0.499512 220.078049ZM0.499512 204.093659 1023.500488 204.093659 0.499512 204.093659ZM0.499512 188.109268 1023.500488 188.109268 0.499512 188.109268ZM0.499512 172.124878 1023.500488 172.124878 0.499512 172.124878ZM0.499512 156.140488 1023.500488 156.140488 0.499512 156.140488ZM0.499512 140.156098 1023.500488 140.156098 0.499512 140.156098ZM0.499512 124.171707 1023.500488 124.171707 0.499512 124.171707ZM0.499512 108.187317 1023.500488 108.187317 0.499512 108.187317ZM0.499512 92.202927 1023.500488 92.202927 0.499512 92.202927ZM0.499512 76.218537 1023.500488 76.218537 0.499512 76.218537ZM0.499512 60.234146 1023.500488 60.234146 0.499512 60.234146ZM0.499512 44.249756 1023.500488 44.249756 0.499512 44.249756ZM0.499512 28.265366 1023.500488 28.265366 0.499512 28.265366ZM0.499512 12.280976 1023.500488 12.280976 0.499512 12.280976ZM0.499512-3.703415 1023.500488-3.703415 0.499512-3.703415ZM0.499512-19.687805 1023.500488-19.687805 0.499512-19.687805ZM0.499512-35.672195 1023.500488-35.672195 0.499512-35.672195ZM0.499512-51.656585 1023.500488-51.656585 0.499512-51.656585ZM0.499512-67.640976 1023.500488-67.640976 0.499512-67.640976ZM0.499512-83.625366 1023.500488-83.625366 0.499512-83.625366ZM0.499512-99.609756 1023.500488-99.609756 0.499512-99.609756ZM0.499512-115.594146 1023.500488-115.594146 0.499512-115.594146ZM0.499512-131.578537 1023.500488-131.578537 0.499512-131.578537ZM0.499512-147.562927 1023.500488-147.562927 0.499512-147.562927ZM0.499512-163.547317 1023.500488-163.547317 0.499512-163.547317ZM0.499512-179.531707 1023.500488-179.531707 0.499512-179.531707ZM0.499512-195.516098 1023.500488-195.516098 0.499512-195.516098ZM816.980168 89.244816c-3.95314 2.613448-75.648125 49.639524-182.297975 72.717986 39.120796 49.559602 64.24626 116.2235 74.919836 160.59417 14.823524 61.492948 9.06215 181.805456-49.99118 256.784234-34.522287 43.820207-82.824117 66.957612-139.677596 66.957612-56.85248 0-105.155309-23.157385-139.656617-66.957612-59.055329-74.959797-64.794724-195.271305-49.99218-256.765253 10.674576-44.371668 35.77906-111.033569 74.919836-160.593171-106.64985-23.08046-178.345834-70.104539-182.277994-72.718985-14.409928-9.593631-20.857631-27.522123-15.825545-44.074958 4.993124-16.611778 20.308168-27.974681 37.607274-27.974681l550.449452 0c17.319087 0 32.59417 11.362903 37.627255 27.9547C837.837799 61.721694 831.390096 79.651184 816.980168 89.244816L816.980168 89.244816zM603.818334 186.319017l-6.408741-8.138053c-46.887212-53.865397-108.025506-53.865397-154.891739 0l-6.428722 8.138053c-54.750533 69.377249-81.92 161.145631-70.222423 248.687141 10.714537 84.119852 58.917463 171.975056 154.066544 171.975056 95.15008 0 143.372987-87.874185 154.086525-171.995036C685.678392 347.404706 658.607828 255.735227 603.818334 186.319017L603.818334 186.319017zM244.709026 56.531762c2.71335 1.810232 69.317307 45.491575 168.791165 66.997573l48.833311 10.55769c17.436972-11.442825 36.565292-18.578857 57.59975-18.578857 21.055438 0 40.163778 7.136031 57.600749 18.578857l48.832312-10.55769c98.688624-21.349151 165.056812-64.540972 168.792164-66.997573L244.709026 56.531762zM1001.292176 298.294665c-0.382626-269.594724-219.234903-487.848585-488.831625-487.466958-269.594724 0.383625-487.844589 219.2389-487.465959 488.832624 0.382626 269.592726 219.239899 487.84359 488.830626 487.465959C783.419941 786.744663 1001.673803 567.885393 1001.292176 298.294665z"  horiz-adv-x="1024" />

    
    <glyph glyph-name="dingdan" unicode="&#58940;" d="M537.429 590.474c53.437 0 96.754 44.64 96.754 99.73 0 30.991-13.709 58.678-35.23 76.978 1.841-6.278 3.14-12.808 3.14-19.712 0-37.644-29.596-68.146-66.104-68.146-36.517 0-66.115 30.502-66.115 68.146 0 5.515 0.8 10.802 2.01 15.929-19.132-18.219-31.203-44.22-31.203-73.194C440.682 635.114 483.999 590.474 537.429 590.474zM534.349 717.618c35.607 0 64.472 29.749 64.472 66.46 0 36.699-28.865 66.448-64.472 66.448-35.608 0-64.474-29.749-64.474-66.448C469.875 747.367 498.74 717.618 534.349 717.618zM78.809 121.594l155.81-62.177c-12.567 25.91-62.832 417.07-62.832 417.07L78.809 121.594zM712.094-83.064l10.061 152.839-349.316-36.268L712.094-83.064zM817.639 758.851l-169.355-25.76c10.194-18.833 16.055-40.505 16.055-63.613 0-72.249-56.807-130.824-126.908-130.824-70.084 0-126.901 58.576-126.901 130.824 0 9.582 1.066 18.901 2.95 27.904l-209.025-31.788c7.536-202.06 98.011-603.591 98.011-603.591l650.886 113.984C908.113 222.623 817.639 758.851 817.639 758.851zM327.385 439.709l276.938 41.051 8.23-30.819-276.923-41.063L327.385 439.709zM386.848 206.045l-10.06 35.15 340.838 49.995 10.07-35.149L386.848 206.045zM366.201 307.267l-13.441 34.878 439.032 59.52 13.447-34.875L366.201 307.267z"  horiz-adv-x="1024" />

    
    <glyph glyph-name="shang" unicode="&#58901;" d="M65.923944 183.199695l446.077591 446.077591L958.07401 183.199695 65.923944 183.199695zM65.923944 183.199695"  horiz-adv-x="1024" />

    
    <glyph glyph-name="xia" unicode="&#58902;" d="M958.072987 629.277286 511.995395 183.199695 65.92292 629.277286 958.072987 629.277286zM958.072987 629.277286"  horiz-adv-x="1024" />

    
    <glyph glyph-name="cha" unicode="&#58898;" d="M646.976 384.064l324.672 324.736c35.84 35.84 35.84 93.952 0 129.792-35.968 35.968-94.016 35.968-129.856 0l-324.736-324.672-324.672 324.672c-35.904 35.968-94.08 35.968-129.792 0-36.032-35.84-36.032-93.952 0-129.792l324.608-324.736-324.608-324.8c-36.032-35.84-36.032-94.016 0-129.856 35.776-35.84 93.952-35.84 129.792 0l324.672 324.736 324.736-324.736c35.904-35.84 93.952-35.84 129.856 0 35.84 35.904 35.84 94.08 0 129.856L646.976 384.064z"  horiz-adv-x="1024" />

    
    <glyph glyph-name="shezhi1" unicode="&#58888;" d="M509.039552 565.496657c-98.411357 0-178.476881-80.048127-178.476881-178.440042 0-98.393961 80.0645-178.442088 178.476881-178.442088 98.41238 0 178.475857 80.049151 178.475857 178.442088C687.515409 485.44853 607.451932 565.496657 509.039552 565.496657zM509.039552 258.605082c-70.841442 0-128.476093 57.624419-128.476093 128.451534 0 70.830185 57.634652 128.455627 128.476093 128.455627 70.842465 0 128.47507-57.625442 128.47507-128.455627C637.514622 316.228477 579.882017 258.605082 509.039552 258.605082zM898.636781 518.285402l-21.476127 0-2.503007 6.662747-0.116657 0.248663c-0.234337 0.493234-0.463558 0.99056-0.670266 1.517563l-0.038886 0.098237c-3.065825 7.992021-5.921873 14.897292-8.731872 21.109784l-2.966565 6.558369 15.201214 15.22168c22.563902 22.550599 34.987862 52.53654 34.987862 84.436064 0 31.900547-12.426007 61.893652-34.989909 84.457554L860.643468 755.287211c-22.561855 22.551622-52.55803 34.970466-84.466764 34.970466-31.906687 0-61.899792-12.418844-84.452437-34.966373l-15.21247-15.219633-6.566556 2.966565c-6.720052 3.038196-14.213723 6.108115-22.907733 9.385764l-6.741541 2.541893 0 21.61018c0 65.850777-53.584406 119.423927-119.448486 119.423927l-23.609721 0c-65.86408 0-119.448486-53.574173-119.448486-119.423927l0-21.61018-6.742565-2.541893c-8.66638-3.267417-16.156982-6.337335-22.900569-9.385764l-6.564509-2.965541-15.219633 15.216563c-22.554692 22.549575-52.546773 34.968419-84.451414 34.968419-31.905664 0-61.901839-12.418844-84.461647-34.968419l-16.695241-16.694217c-22.560832-22.561855-34.985816-52.555983-34.985816-84.45653 0-31.899524 12.424984-61.886489 34.989909-84.442204l15.20326-15.21861-2.972705-6.561439c-2.829442-6.248308-5.605671-12.955056-8.758478-21.167089-0.215918-0.553609-0.453325-1.070378-0.696872-1.581008l-0.112564-0.240477-2.512217-6.644327-21.459754 0c-65.86408 0-119.448486-53.573149-119.448486-119.422903l0-23.612791c0-65.846684 53.584406-119.419833 119.448486-119.419833l21.48329 0 2.498914-6.66991 0.110517-0.23536c0.240477-0.506537 0.473791-1.017166 0.712221-1.626034 3.070942-8.004301 5.928013-14.907525 8.734942-21.104667l2.972705-6.560416-15.208377-15.22475c-22.559808-22.550599-34.984792-52.537564-34.984792-84.438111s12.424984-61.892629 34.985816-84.453461l16.695241-16.693194c22.559808-22.550599 52.555983-34.970466 84.46267-34.970466 31.905664 0 61.897745 12.419867 84.451414 34.970466l15.220656 15.216563 6.564509-2.967588c6.752798-3.051499 14.241352-6.119371 22.895453-9.377578l6.746658-2.539846 0-21.620413c0-65.850777 53.584406-119.423927 119.448486-119.423927l23.609721 0c65.863057 0 119.448486 53.574173 119.448486 119.423927l0 21.620413 6.747681 2.539846c8.679683 3.26844 16.171308 6.333242 22.900569 9.377578l6.567579 2.967588 15.210423-15.216563c22.554692-22.550599 52.547797-34.970466 84.452437-34.970466 31.907711 0 61.904908 12.419867 84.466764 34.968419l16.691147 16.693194c22.563902 22.562878 34.988886 52.557006 34.988886 84.455507 0 31.900547-12.424984 61.887512-34.995025 84.444251l-15.195074 15.216563 2.966565 6.558369c2.825348 6.246261 5.681396 13.148461 8.756431 21.170159 0.213871 0.547469 0.448208 1.058099 0.689708 1.564635l0.106424 0.226151 2.486634 6.67912 21.500687 0c65.86408 0 119.448486 53.574173 119.448486 119.419833l0 23.612791C1018.084244 464.712253 964.500861 518.285402 898.636781 518.285402zM968.089596 375.255849c0-4.502547-0.460488-9.073656-1.354857-13.507642-0.336668-1.743714-0.828878-3.225461-1.223874-4.414543-0.121773-0.36532-0.24457-0.728594-0.356111-1.096984l-0.304945-1.104147c-0.49221-1.810229-1.051959-3.858888-1.940189-6.048763-0.919952-2.234901-2.006703-4.190439-2.964518-5.91778l-0.585331-1.058099c-0.168846-0.309038-0.327458-0.626263-0.48914-0.942465-0.479931-0.946558-1.074472-2.118244-1.889023-3.349281-1.89721-2.945075-4.042059-5.533017-5.89322-7.67889l-0.072655-0.081864c-0.073678-0.091074-0.145309-0.187265-0.218988-0.280386-0.338714-0.442068-0.803295-1.044796-1.417279-1.700735-2.39863-2.565429-5.101181-5.000897-8.318456-7.485485-0.275269-0.234337-0.553609-0.461511-0.849344-0.681522-10.193153-7.671727-22.422685-12.344143-35.33374-13.508665-0.483001-0.045025-0.959861-0.11154-1.436722-0.177032-1.309832-0.179079-2.938935-0.402159-4.803399-0.402159L839.941984 305.819406c-8.030907-32.412201-21.474081-64.188928-40.055275-94.675266l42.097794-42.071188c10.604522-10.601452 17.330714-24.24417 19.457144-39.496549 0.046049-0.335644 0.075725-0.663102 0.104377-1.032516 0.508583-4.069689 0.690732-7.726985 0.559748-11.099802-0.028653-0.915859-0.12382-1.704828-0.193405-2.28095-0.020466-0.162706-0.041956-0.324388-0.054235-0.465604-0.216941-2.874467-0.5137-6.230911-1.264806-9.581216-0.291642-1.346671-0.674359-2.537799-0.982374-3.498684-0.119727-0.372483-0.2415-0.74906-0.350994-1.127683 0 0-0.280386-0.959861-0.404206-1.385557-0.532119-1.840928-1.133823-3.928472-2.066055-6.110161-0.871857-2.089591-1.904373-3.919263-2.818185-5.53404-0.205685-0.363274-0.411369-0.728594-0.659009-1.172709-0.217964-0.38681-0.415462-0.781806-0.615007-1.175779-0.529049-1.040702-1.183965-2.333138-2.088568-3.682879-2.586918-3.866051-5.486968-7.419993-8.624425-10.56359l-16.71366-16.708544c-3.128247-3.113921-6.66684-6.005784-10.517541-8.592702l-0.106424-0.070608c-1.315972-0.860601-2.579755-1.50426-3.595898-2.02103-0.410346-0.206708-0.823761-0.414439-1.204431-0.626263l-0.953721-0.540306c-1.680269-0.955768-3.584642-2.042519-5.689582-2.917446-2.14178-0.909719-4.170996-1.49812-5.961782-2.01796-0.472767-0.137123-0.948605-0.275269-1.423419-0.417509l-0.220011-0.064468c-0.36839-0.104377-0.733711-0.222057-1.100054-0.339738-0.945535-0.302899-2.117221-0.679475-3.461845-0.961908-3.430122-0.75827-6.770194-1.076518-9.589402-1.288343l-0.112564-0.00614c-0.163729-0.01228-0.326435-0.033769-0.490164-0.053212-0.525979-0.059352-1.239224-0.138146-2.064009-0.166799-0.782829-0.033769-1.564635-0.051165-2.347464-0.051165-2.712785 0-5.626137 0.197498-8.904811 0.602727l-0.066515 0.008186c-0.313132 0.026606-0.627287 0.057305-0.940418 0.102331-15.190981 2.124384-28.829606 8.843412-39.446407 19.437701l-42.035372 42.023092c-30.510898-18.621103-62.311161-32.084743-94.746898-40.11258l0-58.544371c0-1.847068-0.220011-3.466961-0.396019-4.768607-0.064468-0.476861-0.132006-0.953721-0.176009-1.428535-1.171686-12.932544-5.829775-25.13547-13.475919-35.305087-0.160659-0.220011-0.327458-0.431835-0.506537-0.651846l-0.157589-0.201591c-2.52245-3.244904-4.989641-5.975085-7.53972-8.347109-0.685615-0.647753-1.305739-1.12973-1.763157-1.483794-0.102331-0.077771-0.204661-0.154519-0.305969-0.239454-2.303462-1.988284-4.838192-4.082992-7.711636-5.924943-1.170662-0.75827-2.288113-1.332345-3.186576-1.791809-0.340761-0.173962-0.682545-0.348947-1.037632-0.543376l-0.765433-0.425695c-1.804089-1.001817-3.850701-2.137687-6.160303-3.115967l-0.150426-0.061398c-2.110057-0.854461-4.14746-1.414209-5.945409-1.907443l-1.184989-0.329505c-0.426719-0.119727-0.846274-0.25992-1.26583-0.399089-1.124614-0.369414-2.52245-0.830925-4.143367-1.151219-4.52813-0.903579-9.095145-1.362021-13.574157-1.362021l-23.609721 0c-4.475941 0-9.04398 0.458441-13.57518 1.362021-1.614777 0.319272-3.00238 0.774643-4.115738 1.140986-0.425695 0.140193-0.850367 0.282433-1.309832 0.412392l-1.181919 0.326435c-1.792832 0.494257-3.825119 1.054005-5.930059 1.906419l-0.146333 0.061398c-2.315742 0.978281-4.367471 2.118244-6.175653 3.122107l-0.768503 0.427742c-0.336668 0.185218-0.678452 0.358157-1.019213 0.533143-0.901533 0.460488-2.023076 1.034563-3.149736 1.765203-3.027963 1.940189-5.587252 4.086062-7.725962 5.925966-0.102331 0.088004-0.209778 0.166799-0.316202 0.24764-0.467651 0.364297-1.103124 0.857531-1.802042 1.518586-2.549056 2.379187-5.009084 5.104251-7.518231 8.333806l-0.050142 0.065492c-0.149403 0.179079-0.38374 0.463558-0.650823 0.835018-7.631818 10.169617-12.277628 22.357194-13.43601 35.225269-0.044002 0.475837-0.11154 0.949628-0.176009 1.423419-0.178055 1.311879-0.399089 2.944052-0.399089 4.805446l0 58.546418c-32.450063 8.033977-64.249303 21.49557-94.744851 40.108486l-42.043558-42.029232c-10.616802-10.589173-24.254404-17.307178-39.420825-19.427468-0.314155-0.045025-0.623193-0.074701-0.970094-0.104377l-0.056282-0.00614c-3.276626-0.406253-6.188956-0.604774-8.905834-0.604774-0.783853 0-1.569752 0.017396-2.355651 0.051165-0.820692 0.028653-1.533936 0.107447-2.058892 0.168846-0.163729 0.019443-0.326435 0.038886-0.490164 0.051165l-0.107447 0.00614c-2.820232 0.211824-6.16235 0.530073-9.593496 1.288343-1.337461 0.282433-2.50096 0.655939-3.440355 0.956791-0.36839 0.115634-0.735757 0.237407-1.109264 0.341784l-0.249687 0.070608c-0.483001 0.149403-0.966001 0.287549-1.450025 0.427742-1.778506 0.515746-3.794419 1.102101-5.844102 1.974981-2.163269 0.899486-4.048199 1.971911-5.711072 2.920516l-0.99056 0.560772c-0.402159 0.226151-0.812505 0.431835-1.221828 0.638543-1.019213 0.51677-2.286066 1.160429-3.686972 2.081405-3.857864 2.584871-7.401574 5.480828-10.543124 8.615215l-16.703427 16.702404c-3.154853 3.160993-6.056949 6.715959-8.614192 10.550287-0.908696 1.356904-1.564635 2.648316-2.089591 3.686972-0.201591 0.394996-0.399089 0.791016-0.64673 1.230014l-0.587378 1.042749c-0.931209 1.641383-1.985214 3.498684-2.871397 5.625114-0.923022 2.171456-1.52268 4.246721-2.051729 6.079462-0.12382 0.428765-0.421602 1.443885-0.421602 1.443885-0.10847 0.384763-0.233314 0.765433-0.356111 1.144056-0.301875 0.939395-0.678452 2.111081-0.955768 3.38919-0.735757 3.316535-1.047866 6.593162-1.276063 9.630335-0.01228 0.166799-0.034792 0.333598-0.055259 0.500397-0.065492 0.557702-0.155543 1.315972-0.184195 2.199085-0.135076 3.396353 0.045025 7.028067 0.547469 11.060917 0.028653 0.402159 0.067538 0.811482 0.12996 1.227967 2.128477 15.180747 8.850575 28.801976 19.441794 39.388079l42.089607 42.071188c-18.580171 30.486338-32.021298 62.263066-40.050158 94.675266l-58.697867 0c-1.866511 0-3.492544 0.223081-4.798283 0.402159-0.475837 0.064468-0.951675 0.132006-1.400906 0.174985-12.95301 1.166569-25.182542 5.836939-35.369555 13.510712-0.26913 0.199545-0.529049 0.408299-0.807389 0.64673-3.174296 2.443655-5.907547 4.900613-8.353248 7.509021-0.626263 0.667196-1.107217 1.294482-1.426489 1.708921-0.060375 0.079818-0.118704 0.156566-0.180102 0.234337l-0.127913 0.147356c-1.852184 2.153036-3.997034 4.748141-5.885034 7.66661-0.792039 1.207501-1.375324 2.354628-1.846044 3.27765-0.165776 0.327458-0.330528 0.654916-0.529049 1.014096l-0.569982 1.034563c-0.959861 1.732457-2.047636 3.695159-2.988054 5.975085-0.880043 2.156106-1.442862 4.221138-1.940189 6.0416l-0.299829 1.087774c-0.11154 0.37453-0.23536 0.744967-0.35918 1.11745-0.390903 1.182942-0.877997 2.656503-1.196245 4.306072-0.909719 4.51892-1.37123 9.089006-1.37123 13.58439l0 23.606651c0 4.487198 0.461511 9.05626 1.355881 13.503549 0.335644 1.737574 0.825808 3.216251 1.218758 4.403287 0.124843 0.376577 0.25071 0.751107 0.363274 1.128707 0.110517 0.39295 0.217964 0.787946 0.326435 1.181919 0.488117 1.783623 1.041726 3.803629 1.914606 5.944386 0.923022 2.242064 2.007727 4.198625 2.964518 5.925966l0.590448 1.069355c0.174985 0.319272 0.338714 0.64673 0.50449 0.972141 0.472767 0.932232 1.060145 2.087545 1.855254 3.301186 1.856277 2.87242 3.90903 5.344728 5.853311 7.632841l0.146333 0.165776c0.070608 0.084934 0.137123 0.172939 0.204661 0.260943 0.325411 0.418532 0.808412 1.041726 1.445932 1.708921 2.437515 2.613524 5.170766 5.076622 8.351202 7.525394 0.255827 0.217964 0.517793 0.429789 0.791016 0.632403 10.17678 7.661494 22.401196 12.33084 35.358299 13.503549 0.48607 0.042979 0.966001 0.112564 1.444908 0.177032 1.295506 0.176009 2.908236 0.394996 4.759397 0.394996l58.69889 0c8.033977 32.425504 21.475104 64.202231 40.049135 94.675266l-42.091654 42.074258c-10.592242 10.595312-17.313318 24.216541-19.440771 39.392172-0.059352 0.404206-0.098237 0.794086-0.128937 1.218758-0.502443 4.052293-0.682545 7.676843-0.547469 11.069103 0.028653 0.88209 0.118704 1.642406 0.185218 2.201132 0.019443 0.165776 0.042979 0.331551 0.054235 0.490164 0.229221 3.042289 0.541329 6.314823 1.26583 9.583263 0.290619 1.343601 0.673335 2.536776 0.980327 3.495614 0.12075 0.376577 0.243547 0.753153 0.352017 1.134847 0 0 0.287549 0.976234 0.411369 1.406023 0.533143 1.845021 1.137916 3.936659 2.048659 6.072299 0.900509 2.146896 1.973958 4.037966 2.920516 5.708002l0.573051 1.014096c0.217964 0.384763 0.415462 0.782829 0.61603 1.178849 0.524956 1.037632 1.177825 2.328022 2.083451 3.678786 2.567475 3.843538 5.466502 7.393387 8.628518 10.56666l16.703427 16.702404c3.110851 3.102664 6.650467 5.995551 10.523681 8.599865l0.099261 0.066515c1.313925 0.860601 2.576685 1.502213 3.590781 2.016937 0.410346 0.208754 0.823761 0.415462 1.243317 0.649799l1.047866 0.592494c1.636267 0.929162 3.491521 1.982144 5.566786 2.851954 2.158153 0.916882 4.206812 1.508353 6.012947 2.030239 0.461511 0.132006 0.924045 0.26606 1.385557 0.405229l0.207731 0.060375c0.37146 0.103354 0.737804 0.223081 1.103124 0.340761 0.946558 0.302899 2.12029 0.679475 3.469008 0.961908 3.474125 0.76748 6.874571 1.078565 9.486048 1.25969 0.140193 0.01535 0.281409 0.033769 0.422625 0.051165 0.608867 0.075725 1.441838 0.179079 2.353604 0.208754 0.718361 0.025583 1.434675 0.038886 2.15099 0.038886 2.792603 0 5.67321-0.190335 8.79634-0.581238 0.309038-0.017396 0.789992-0.051165 1.366114-0.137123 15.156188-2.125407 28.76923-8.838296 39.379892-19.423375l42.035372-42.025139c30.492478 18.61701 62.292742 32.079626 94.744851 40.113603l0 58.545394c0 1.861394 0.221034 3.490497 0.399089 4.798283 0.064468 0.473791 0.132006 0.947582 0.172939 1.387603 1.162476 12.920264 5.817496 25.124214 13.46364 35.297924 0.193405 0.265036 0.393973 0.520863 0.61603 0.787946l0.061398 0.079818c2.529613 3.25309 4.993734 5.984295 7.531534 8.344039 0.692778 0.655939 1.324158 1.147126 1.789763 1.508353 0.10847 0.084934 0.218988 0.166799 0.279363 0.215918 2.320858 2.003634 4.868891 4.111644 7.714705 5.92699 1.172709 0.760317 2.294252 1.333368 3.194762 1.793856 0.340761 0.173962 0.683569 0.347924 1.013073 0.530073l0.64059 0.357134c1.870604 1.043772 3.990894 2.225691 6.383384 3.208065 2.156106 0.892323 4.227278 1.463328 6.054903 1.967818l1.11745 0.311085c0.430812 0.12382 0.853437 0.264013 1.276063 0.403183 1.12666 0.370437 2.529613 0.829901 4.167926 1.156336 4.519943 0.896416 9.085936 1.351787 13.571087 1.351787l23.609721 0c4.487198 0 9.052167-0.455371 13.570063-1.352811 1.64343-0.327458 3.058662-0.792039 4.196579-1.165546 0.416486-0.137123 0.832971-0.277316 1.227967-0.38988l1.144056-0.318248c1.825578-0.503467 3.89675-1.073448 6.028297-1.955538 2.367931-0.973164 4.443196-2.127454 6.272867-3.145643l0.76748-0.426719c0.336668-0.187265 0.679475-0.360204 1.02126-0.535189 0.89744-0.459464 2.01489-1.031493 3.124154-1.750877 2.943029-1.876744 5.480828-3.981684 7.734148-5.930059 0.105401-0.089028 0.215918-0.171915 0.325411-0.25685 0.459464-0.357134 1.084705-0.842181 1.769296-1.487887 2.539846-2.355651 5.01113-5.090948 7.553023-8.358365l0.094144-0.121773c0.198521-0.23843 0.391926-0.483001 0.579191-0.73985 7.641027-10.171664 12.299117-22.375613 13.467733-35.292807 0.044002-0.480954 0.11154-0.957815 0.176009-1.434675 0.176009-1.298576 0.396019-2.915399 0.396019-4.762467l0-58.546418c32.44904-8.033977 64.24828-21.496593 94.747921-40.113603l42.040489 42.031279c10.600429 10.579963 24.219611 17.295921 39.387056 19.420305 0.564865 0.083911 1.034563 0.116657 1.328251 0.13303 3.134387 0.39295 6.022157 0.583285 8.81783 0.583285 0.716314 0 1.431605-0.013303 2.096754-0.036839 0.961908-0.029676 1.793856-0.134053 2.400676-0.209778 0.14224-0.017396 0.285502-0.036839 0.427742-0.052189 2.614547-0.182149 6.021134-0.493234 9.500375-1.263783 1.349741-0.283456 2.527566-0.661056 3.477194-0.966001 0.36225-0.116657 0.726547-0.23536 1.092891-0.338714 0 0 1.083681-0.317225 1.534959-0.448208 1.819438-0.523933 3.8814-1.119497 5.998621-2.018983 2.146896-0.895393 4.01443-1.957585 5.662977-2.894933l1.01819-0.576121c0.406253-0.227174 0.820692-0.433882 1.232061-0.64366 1.013073-0.5137 2.27174-1.153266 3.581572-2.00875l0.122797-0.081864c3.861958-2.601244 7.398504-5.490038 10.524704-8.602935l16.71059-16.70752c3.123131-3.133364 6.019087-6.680143 8.602935-10.538007 0.906649-1.351787 1.555425-2.635013 2.076288-3.665483 0.200568-0.396019 0.397043-0.794086 0.617054-1.179872l0.64673-1.147126c0.929162-1.644453 1.983167-3.507894 2.828418-5.539156 0.941442-2.201132 1.549286-4.299933 2.084475-6.15314 0.121773-0.424672 0.406253-1.391696 0.406253-1.391696 0.10847-0.381693 0.231267-0.759293 0.353041-1.134847 0.305969-0.959861 0.687662-2.153036 0.960885-3.417843 0.768503-3.428076 1.065262-6.779404 1.281179-9.637498 0.013303-0.161682 0.035816-0.324388 0.055259-0.487094 0.070608-0.573051 0.164752-1.358951 0.191358-2.172479 0.13917-3.432169-0.044002-7.101745-0.557702-11.215436-0.023536-0.323365-0.054235-0.655939-0.10847-1.069355-2.12029-15.199167-8.845459-28.840862-19.452028-39.451524l-42.095747-42.072211c18.574031-30.470989 32.016181-62.243623 40.053228-94.674243l58.694797 0c1.850138 0 3.465938-0.218988 4.76349-0.394996 0.479931-0.064468 0.960885-0.134053 1.440815-0.177032 12.94073-1.163499 25.165146-5.831822 35.358299-13.501502 0.277316-0.204661 0.544399-0.422625 0.825808-0.661056 3.192715-2.461051 5.916756-4.919033 8.326643-7.507998 0.63138-0.664126 1.116427-1.287319 1.441838-1.705851 0.072655-0.093121 0.143263-0.186242 0.171915-0.224104l0.170892-0.195451c1.940189-2.28095 3.986801-4.747117 5.842055-7.616468 0.822738-1.245364 1.422396-2.431376 1.907443-3.388167 0.158612-0.316202 0.318248-0.632403 0.457418-0.8913l0.533143-0.959861c0.982374-1.76418 2.095731-3.761674 3.051499-6.090718 0.850367-2.095731 1.399883-4.101411 1.883907-5.871731 0.10847-0.400113 0.218988-0.799202 0.330528-1.196245 0.11154-0.37146 0.23536-0.73985 0.35918-1.110287 0.399089-1.194198 0.893346-2.681062 1.217734-4.357238 0.908696-4.51892 1.369184-9.086959 1.369184-13.58132L968.088573 375.255849z"  horiz-adv-x="1026" />

    
    <glyph glyph-name="bangzhu" unicode="&#58967;" d="M512 748C264.96 748 64 547.04 64 300c0-246.976 200.96-448 448-448 246.976 0 448 201.024 448 448C960 547.04 758.976 748 512 748zM512-84c-212.032 0-384 171.968-384 384s171.968 384 384 384 384-171.968 384-384S724.032-84 512-84zM487.616 109.408c-10.88 0-20.224-3.84-28.096-11.456-7.872-7.68-11.776-17.152-11.776-28.416 0-11.52 3.968-21.056 11.968-28.544 7.936-7.552 17.28-11.328 27.968-11.328 11.072 0 20.608 3.84 28.544 11.456 8 7.616 11.968 17.152 11.968 28.416 0 11.136-3.968 20.48-11.968 28.224C508.224 105.568 498.688 109.408 487.616 109.408zM503.872 531.68C462.784 531.68 448 520.672 384 498.656l0-64.064c64 30.4 71.04 45.568 111.04 45.568 25.344 0 48.064-6.72 62.912-20.096 14.72-13.376 23.488-30.464 23.488-51.2 0-19.52-4.032-36.736-13.632-51.712C558.336 342.176 542.784 326.112 520.576 308.96 497.984 291.36 476.096 274.656 467.328 258.784 458.56 242.976 448 224.096 448 202.144L448 172l64 0L512 199.648c0 18.88 5.312 33.472 12.608 43.968s22.528 24.576 43.904 42.432c26.56 22.016 46.016 42.944 57.28 62.848 11.392 19.904 17.216 41.984 17.216 66.304 0 34.752-14.656 62.848-38.912 84.352C579.84 520.928 544.64 531.68 503.872 531.68z"  horiz-adv-x="1024" />

    
    <glyph glyph-name="owner" unicode="&#59089;" d="M1016.604444 504.974222c0 41.870222-33.934222 75.832889-75.832889 75.832889s-75.832889-33.934222-75.832889-75.832889c0-16.071111 5.063111-30.919111 13.596444-43.178667-39.964444-22.471111-79.587556-54.385778-144.327111-54.385778-10.496 0-20.650667 0.853333-30.122667 2.56-101.859556 18.318222-156.273778 136.732444-161.735111 171.633778 25.258667 12.316444 42.808889 37.973333 42.808889 67.982222 0 41.870222-33.934222 75.832889-75.832889 75.832889s-75.832889-33.934222-75.832889-75.832889c0-32.540444 20.593778-60.046222 49.379556-70.826667-5.148444-38.855111-57.486222-160.768-156.558222-174.990222-8.021333-1.166222-16.497778-1.735111-25.173333-1.735111-64.227556 0-103.623111 30.890667-146.204444 54.584889 3.811556 9.045333 5.916444 18.972444 5.916444 29.383111 0 41.870222-33.934222 75.832889-75.832889 75.832889-20.536889 0-39.082667-8.248889-52.736-21.475556L31.004444 541.3546670000001l0.625778-1.564444c-13.795556-13.710222-22.385778-32.739556-22.385778-53.76 0-41.841778 33.905778-75.776 75.747556-75.804444l196.209778-476.529778 462.933333 0 204.316444 496.241778C986.680889 433.834667 1016.604444 465.749333 1016.604444 504.974222zM706.048-9.415111000000024L319.345778-9.415111000000024 153.656889 392.931556c47.587556-23.580444 83.569778-47.786667 147.569778-47.786667 11.377778 0 22.584889 0.768 33.251556 2.304 83.598222 11.975111 156.615111 72.675556 180.280889 130.019556 25.031111-53.304889 98.56-108.970667 179.285333-123.505778 12.8-2.304 26.311111-3.470222 40.192-3.470222 60.472889 0 92.700444 21.930667 138.040889 43.719111L706.048-9.415111000000024z"  horiz-adv-x="1026" />

    
    <glyph glyph-name="huifu" unicode="&#58977;" d="M491.395218 577.881868l0-292.783253 114.00552-114.756627 43.431162 43.432185 0-30.460756 36.478819 36.718273-96.957239 97.596805L588.35348 577.881868 491.395218 577.881868zM556.034401 740.539458c-339.354941 0-387.835096-325.316204-387.835096-325.316204L38.921963 415.223255l193.916525-195.191564 193.917548 195.191564L265.15859 415.223255c0 0 56.559157 227.721445 290.87581 227.721445 228.92076 0 291.854091-227.721445 290.87581-325.316204-0.62524-62.253856-32.385595-136.354528-80.376609-198.098777l43.929512 0.026606 0-0.106424 75.724659 0.122797 0-0.12382 10.009981 0.022513c31.324426 63.797002 47.671743 133.49541 47.671743 198.157105C943.869496 477.585581 836.147076 740.539458 556.034401 740.539458zM794.823925 2.219943l-145.991002-0.354064 0-94.26492-84.913948 84.913948c-2.628874-0.128937-5.257747-0.201591-7.883551-0.201591-109.741403 4.066619-193.917548 97.593735-193.917548 97.593735l-96.958262-97.593735c0 0 114.475218-97.594759 290.87581-97.594759 106.133226 0 192.642508 43.012629 256.806877 107.124809l-18.017352-0.116657L794.824949 2.219943zM633.48333 176.716162 517.454734 60.686543l116.028597-116.028597 0 72.520687 161.630191 0.391926 0 86.626963-161.630191-0.098237L633.48333 176.716162zM810.173518 17.175563l60.664661 0.394996 0 86.626963-60.664661-0.099261L810.173518 17.175563zM886.28908 17.175563l43.51098 0.394996 0 86.626963-43.51098-0.099261L886.28908 17.175563zM944.961364 104.098261l0-86.922698 29.006637 0.394996 0 86.626963L944.961364 104.098261z"  horiz-adv-x="1024" />

    
    <glyph glyph-name="sysshezhi" unicode="&#59041;" d="M511.606 564.076c-98.877 0-179.283-80.407-179.283-179.283 0-98.878 80.406-179.283 179.283-179.283 98.878 0 179.283 80.405 179.283 179.283 0 98.876-80.405 179.283-179.283 179.283zM511.606 250.331c-74.256 0-134.462 60.184-134.462 134.462 0 74.278 60.205 134.461 134.462 134.461s134.462-60.183 134.462-134.461c0-74.279-60.205-134.462-134.462-134.462zM959.814 295.151v179.283l-129.975 21.514c-3.592 12.103-8.536 24.203-14.795 35.409l77.078 107.129-126.845 126.845-107.106-77.103c-11.204 6.283-23.307 11.206-35.41 14.795l-21.512 129.977h-179.283l-21.513-129.976c-12.563-3.59-24.205-8.973-35.848-14.795l-106.23 75.746-126.847-126.389 76.205-106.23c-5.822-11.206-10.767-23.307-14.357-35.409l-129.976-21.514v-179.283l129.976-21.512c4.027-12.541 8.973-25.103 15.232-36.746l-76.182-106.23 126.846-126.846 106.668 76.642c11.205-5.384 22.41-10.308 34.513-13.896l21.513-129.976h179.283l21.512 129.976c12.562 4.048 24.643 8.973 36.308 15.253l107.128-77.101 126.846 126.846-77.101 107.565c5.361 11.205 10.306 22.41 13.898 34.514l129.976 21.513zM786.854 286.376c-2.887-9.74-7.133-19.149-11.335-27.838-7.090-14.751-5.559-32.237 3.984-45.543l54.932-76.642-73.009-73.009-76.183 54.843c-7.769 5.604-16.939 8.448-26.173 8.448-7.312 0-14.598-1.795-21.252-5.385-8.644-4.617-18.055-8.556-28.757-12.014-16.019-5.165-27.75-18.779-30.552-35.366l-15.276-92.465-103.255 0-15.276 92.465c-2.845 16.939-15.078 30.792-31.515 35.671-9.739 2.867-19.149 7.136-27.882 11.337-6.15 2.91-12.781 4.398-19.368 4.398-9.235 0-18.361-2.867-26.131-8.426l-75.788-54.406-73.008 73.010 54.056 75.307c9.935 13.875 11.161 32.302 2.998 47.36-4.399 8.207-8.339 17.748-12.015 29.238-5.165 15.998-18.778 27.729-35.366 30.507l-92.465 15.298 0 103.256 92.465 15.296c16.939 2.824 30.792 15.058 35.672 31.493 2.735 9.191 6.544 18.69 11.118 27.489 7.79 14.968 6.5 33.067-3.327 46.79l-54.012 75.263 73.030 72.725 75.394-53.73c7.746-5.514 16.852-8.338 26.043-8.338 6.85 0 13.7 1.576 20.025 4.75 9.104 4.53 18.778 9.103 28.145 11.752 16.633 4.793 29.041 18.69 31.93 35.804l15.276 92.465h103.254l15.276-92.465c2.845-16.939 15.079-30.792 31.515-35.673 9.323-2.779 18.428-6.544 26.262-10.942 6.829-3.808 14.357-5.691 21.885-5.691 9.235 0 18.384 2.824 26.175 8.426l76.205 54.867 72.965-72.965-54.866-76.204c-10.177-14.117-11.205-32.85-2.736-48.105 4.4-7.79 8.164-16.853 10.941-26.219 4.882-16.435 18.736-28.669 35.673-31.493l92.465-15.296v-103.255l-92.465-15.298c-16.94-2.822-30.793-15.057-35.674-31.492z"  horiz-adv-x="1024" />

    
    <glyph glyph-name="weibiaoti1" unicode="&#58896;" d="M691.682868 371.836898c-10.042795 11.450065-38.380107 41.194648-62.623541 62.495608-77.46385-80.406324-312.350105-312.414072-312.350105-312.414072l0-62.623541 62.495608 0L691.682868 371.836898zM785.266363 809.306152l-93.647461 0L691.618901 824.914062c0 94.415063-62.623541 100.236046-62.623541-15.60791L379.204829 809.306152c0 96.270102-62.495608 107.976035-62.495608 15.60791l0-15.60791L222.997793 809.306152c-51.749178 0-93.711428-41.898284-93.711428-93.711428l0-812.506868c0-17.271048 13.944772-31.087887 31.21582-31.087887l687.451685 0c17.271048 0 31.151854 13.880805 31.151854 31.087887L879.105725 715.530757C879.105725 767.343902 837.143474 809.306152 785.266363 809.306152zM816.610117-65.632356 191.781973-65.632356 191.781973 496.828113l624.828144 0L816.610117-65.632356zM816.610117 559.323721 191.781973 559.323721 191.781973 746.746577l124.927249 0 0-124.991215 62.495608 0L379.204829 746.746577 629.059327 746.746577l0-124.991215 62.623541 0L691.682868 746.746577l124.927249 0L816.610117 559.323721z"  horiz-adv-x="1024" />

    
    <glyph glyph-name="yuandian" unicode="&#58907;" d="M512 384m-320 0a5 5 0 1 0 640 0 5 5 0 1 0-640 0Z"  horiz-adv-x="1024" />

    
    <glyph glyph-name="edit" unicode="&#59539;" d="M896 364l0-362.688C896-45.6 857.632-84 810.688-84L213.376-84C166.432-84 128-45.6 128 1.312L128 598.688C128 645.6 166.432 684 213.376 684L576 684l0-32L222.256 652C179.232 652 160 632.8 160 589.792l0-579.6C160-32.8 179.232-52 222.256-52l579.552 0C844.816-52 864-32.8 864 10.208L864 364 896 364zM811.936 645.184l45.248-45.248c12.496-12.496 12.496-32.768 0-45.248l-22.624-22.624L407.952 105.456l0-0.016L317.44 105.44l0 90.512 426.608 426.624 0.016-0.016 22.624 22.624C779.168 657.68 799.44 657.68 811.936 645.184zM744.032 577.328 351.376 184.64l-1.568-46.816 46.816 1.552 0 0.032 392.672 392.656L744.032 577.328zM789.296 622.576l-22.624-22.624 45.264-45.264 22.624 22.624L789.296 622.576z"  horiz-adv-x="1024" />

    
    <glyph glyph-name="gou" unicode="&#59143;" d="M505.344-40.928l-434.944 315.392c-17.888 12.96-21.856 37.984-8.896 55.872 12.928 17.888 37.984 21.888 55.872 8.896l367.296-266.368 409.376 619.392c12.192 18.464 36.992 23.456 55.424 11.328 18.432-12.192 23.488-36.992 11.328-55.424L505.344-40.928z"  horiz-adv-x="1024" />

    
    <glyph glyph-name="fankui" unicode="&#58963;" d="M63.988 280.347v-55.946c0-30.909 25.055-55.964 55.964-55.964h55.946c0.005 0 0.011 0 0.016 0h55.964v-167.89l251.836 167.89h363.762c0 0 0.005 0 0.011 0h55.952c30.909 0 55.964 25.055 55.964 55.964v615.597c0 30.909-25.055 55.964-55.964 55.964h-783.487c-30.909 0-55.964-25.055-55.964-55.964v-55.952c0-0.005 0-0.005 0-0.011v-503.67c0-0.006 0-0.011 0-0.017zM175.916 784.035h671.56v-503.671h-363.762l-139.908-83.945v83.945h-167.89v503.671zM679.586 392.291h55.964v111.927h-447.707v-111.927h391.743zM735.549 672.107h-447.707v-111.927h447.707v111.927z"  horiz-adv-x="1024" />

    
    <glyph glyph-name="jieduan" unicode="&#58933;" d="M870.433974-63.410959 152.040277-63.410959c-17.836227 0-32.295544 14.459317-32.295544 32.29452l0 295.981085c0 17.83418 14.459317 32.293497 32.295544 32.293497l203.332988 0L355.373265 526.359288c0 17.836227 14.46341 32.295544 32.299637 32.295544l157.356864 0L545.029766 799.350776c0 17.83725 14.459317 32.296567 32.296567 32.296567l293.108664 0c17.841344 0 32.299637-14.459317 32.299637-32.296567l0-830.467215C902.734634-48.951643 888.275317-63.410959 870.433974-63.410959L870.433974-63.410959zM184.340937 1.178081l653.797493 0L838.13843 767.055233 609.620853 767.055233l0-240.695944c0-17.836227-14.459317-32.295544-32.295544-32.295544L419.967422 494.063745l0-229.199099c0-17.83725-14.458293-32.296567-32.29452-32.296567L184.340937 232.568079 184.340937 1.178081 184.340937 1.178081zM184.340937 1.178081"  horiz-adv-x="1024" />

    
    <glyph glyph-name="chanpin" unicode="&#58925;" d="M873.767394 43.558307M510.567371 831.586968c-247.00565 0-447.24416-200.236464-447.24416-447.24416S263.560698-62.902376 510.567371-62.902376c94.481861 0 182.116781 29.296233 254.322289 79.300091-0.151449 0.054235-0.293689 0.11768-0.445138 0.171915 7.319709 5.901407 12.010545 14.936177 12.010545 25.069979 0 17.774829-14.404058 32.178887-32.17991 32.178887-9.717316 0-18.424628-4.314259-24.327058-11.124362-0.01535 0.054235-0.038886 0.102331-0.054235 0.156566-60.0824-39.025828-131.771139-61.701271-208.753441-61.701271-211.946157 0-383.761314 171.817204-383.761314 383.76643 0 211.94411 171.816181 383.761314 383.761314 383.761314 211.94411 0 383.760291-171.817204 383.760291-383.761314 0-87.044472-28.984125-167.316703-77.819366-231.699036-6.610558-5.892197-10.778484-14.473643-10.778484-24.02416 0-17.770735 14.404058-32.17991 32.17991-32.17991 8.271384 0 15.815197 3.127224 21.518083 8.258081 0.005117-0.024559 0.01535-0.044002 0.01842-0.068562 0.083911 0.102331 0.161682 0.204661 0.245593 0.308015 2.62785 2.424212 4.856611 5.27719 6.566556 8.452509 57.082066 75.097372 90.982154 168.775938 90.982154 270.381034C957.812555 631.350504 757.574045 831.586968 510.567371 831.586968zM284.899702 257.798716 490.980267 133.819031 490.980267 376.758062 284.899702 500.741841ZM504.383532 635.927753 310.031079 535.399175 511.162936 408.821315 712.290699 512.151705ZM533.799492 377.875512 533.799492 134.936481 735.00298 238.265848 735.007073 238.265848 735.007073 481.204879Z"  horiz-adv-x="1024" />

    
    </font>
</defs>
</svg>
